<?xml version="1.0" standalone="no"?>
<!DOCTYPE svg PUBLIC "-//W3C//DTD SVG 1.1//EN" "http://www.w3.org/Graphics/SVG/1.1/DTD/svg11.dtd" >
<svg xmlns="http://www.w3.org/2000/svg">
<metadata>Generated by IcoMoon</metadata>
<defs>
<font id="clickfont" horiz-adv-x="1024">
<font-face units-per-em="1024" ascent="960" descent="-64" />
<missing-glyph horiz-adv-x="1024" />
<glyph unicode="&#x20;" horiz-adv-x="512" d="" />
<glyph unicode="&#xe900;" glyph-name="addclipboard" d="M716.8 836.267h-75.776c-8.192 61.44-59.392 104.448-120.832 104.448s-112.64-43.008-120.832-104.448h-92.16v-143.36h409.6v143.36zM757.76 774.827v-122.88h-491.52v122.88h-163.84v-860.16h819.2v860.16h-163.84zM880.64 242.347h-143.36v-143.36h-122.88v143.36h-143.36v122.88h143.36v143.36h122.88v-143.36h143.36v-122.88z" />
<glyph unicode="&#xe901;" glyph-name="adsl" d="M0 940.715v-833.536h55.296v-114.688h202.752v-79.872h514.048v79.872h198.656v114.688h53.248v833.536h-1024zM872.448 199.339h-38.912v-79.872h-137.216v-55.296h-362.496v55.296h-143.36v79.872h-38.912v589.824h720.896v-589.824z" />
<glyph unicode="&#xe902;" glyph-name="arrowdown" d="M106.496 426.667l405.504-512 405.504 512h-229.376v512h-352.256v-512z" />
<glyph unicode="&#xe903;" glyph-name="arrowleft" d="M512 832.171l-512-405.504 512-405.504v229.376h512v352.256h-512z" />
<glyph unicode="&#xe904;" glyph-name="arrowright" d="M512 21.163l512 405.504-512 405.504v-229.376h-512v-352.256h512z" />
<glyph unicode="&#xe905;" glyph-name="arrowup" d="M917.504 426.667l-405.504 512-405.504-512h229.376v-512h352.256v512z" />
<glyph unicode="&#xe906;" glyph-name="blinds" d="M909.312 938.667h-794.624l-106.496-245.76h1007.616zM114.688 549.547l-106.496-245.76h1007.616l-106.496 245.76zM114.688 160.427l-106.496-245.76h1007.616l-106.496 245.76z" />
<glyph unicode="&#xe907;" glyph-name="cablet" d="M923.648 651.947l-249.856-249.856-100.352 102.4-100.352-100.352 200.704-202.752 350.208 350.208zM0 938.667h65.536v-1024h-65.536v1024zM139.264 938.667h65.536v-1024h-65.536v1024zM276.48 938.667h65.536v-1024h-65.536v1024z" />
<glyph unicode="&#xe908;" glyph-name="calibrate" d="M937.984 125.611l-231.424 243.712c22.528 69.632 6.144 149.504-49.152 202.752-55.296 55.296-133.12 71.68-202.752 49.152l133.12-133.12-131.072-131.072-133.12 133.12c-22.528-69.632-6.144-147.456 49.152-202.752s133.12-71.68 202.752-49.152l65.536-67.584 10.24-10.24 157.696-163.84 129.024 129.024zM854.016 250.539c2.048 2.048 2.048 4.096 4.096 6.144v2.048c0 2.048 2.048 4.096 2.048 6.144 0 0 0 2.048 2.048 2.048 0 2.048 2.048 4.096 2.048 6.144s2.048 2.048 2.048 4.096c0 2.048 2.048 2.048 2.048 4.096s2.048 4.096 2.048 6.144c0 0 0 2.048 2.048 2.048 0 2.048 2.048 4.096 2.048 6.144v2.048c0 2.048 2.048 4.096 2.048 8.192 0 0 0 0 0 2.048s2.048 6.144 2.048 8.192 4.096 12.288 4.096 18.432h141.312v182.272h-139.264c-2.048 8.192-4.096 12.288-4.096 18.432 0 2.048-2.048 6.144-2.048 8.192s-2.048 4.096-2.048 8.192v2.048c0 2.048-2.048 4.096-2.048 6.144 0 0 0 2.048-2.048 2.048 0 2.048-2.048 4.096-2.048 6.144s-2.048 2.048-2.048 4.096c0 2.048-2.048 2.048-2.048 4.096s-2.048 4.096-2.048 6.144c0 0 0 2.048-2.048 2.048 0 2.048-2.048 4.096-2.048 6.144v2.048c-2.048 2.048-2.048 4.096-4.096 6.144s-2.048 4.096-4.096 8.192-6.144 10.24-8.192 16.384l98.304 98.304-129.024 129.024-102.4-96.256c-6.144 4.096-10.24 6.144-16.384 8.192-2.048 2.048-4.096 2.048-8.192 4.096-2.048 2.048-4.096 2.048-6.144 4.096h-2.048c-2.048 0-4.096 2.048-6.144 2.048 0 0-2.048 0-2.048 2.048-2.048 0-4.096 2.048-6.144 2.048s-2.048 2.048-4.096 2.048-2.048 2.048-4.096 2.048-4.096 2.048-6.144 2.048c0 0-2.048 0-2.048 2.048-2.048 0-4.096 2.048-6.144 2.048h-2.048c-2.048 0-4.096 2.048-8.192 2.048 0 0 0 0-2.048 0s-6.144 2.048-8.192 2.048c-6.144 4.096-10.24 6.144-18.432 6.144v141.312h-182.272v-141.312c-6.144 0-10.24-2.048-16.384-4.096-2.048 0-6.144-2.048-8.192-2.048s-4.096-2.048-8.192-2.048h-2.048c-2.048 0-4.096-2.048-6.144-2.048 0 0-2.048 0-2.048-2.048-2.048 0-4.096-2.048-6.144-2.048s-2.048-2.048-4.096-2.048c-2.048 0-2.048-2.048-4.096-2.048s-4.096-2.048-6.144-2.048c0 0-2.048 0-2.048-2.048-2.048 0-4.096-2.048-6.144-2.048h-2.048c-2.048-2.048-4.096-2.048-6.144-4.096s-4.096-2.048-8.192-4.096-10.24-6.144-16.384-8.192l-98.304 98.304-129.024-129.024 96.256-100.352c-4.096-6.144-6.144-10.24-8.192-16.384-2.048-2.048-2.048-4.096-4.096-8.192-2.048-2.048-2.048-4.096-4.096-6.144v-2.048c0-2.048-2.048-4.096-2.048-6.144 0 0 0-2.048-2.048-2.048 0-2.048-2.048-4.096-2.048-6.144s-2.048-2.048-2.048-4.096c0-2.048-2.048-2.048-2.048-4.096s-2.048-4.096-2.048-6.144c0 0 0-2.048-2.048-2.048 0-2.048-2.048-4.096-2.048-6.144v-2.048c0-2.048-2.048-4.096-2.048-8.192 0 0 0 0 0-2.048s-2.048-6.144-2.048-8.192c-4.096-6.144-6.144-10.24-8.192-18.432h-139.264v-182.272h139.264c2.048-6.144 2.048-12.288 4.096-18.432 0-2.048 2.048-6.144 2.048-8.192 0 0 0 0 0-2.048s2.048-4.096 2.048-8.192v-2.048c0-2.048 2.048-4.096 2.048-6.144 0 0 0-2.048 2.048-2.048 0-2.048 2.048-4.096 2.048-6.144s2.048-2.048 2.048-4.096c0-2.048 2.048-2.048 2.048-4.096s2.048-4.096 2.048-6.144c0 0 0-2.048 2.048-2.048 0-2.048 2.048-4.096 2.048-6.144v-2.048c2.048-2.048 2.048-4.096 4.096-6.144s2.048-4.096 4.096-8.192 6.144-10.24 8.192-16.384l-98.304-98.304 129.024-129.024 98.304 98.304c6.144-4.096 10.24-6.144 16.384-8.192 2.048-2.048 4.096-2.048 8.192-4.096 2.048-2.048 4.096-2.048 6.144-4.096h2.048c2.048 0 4.096-2.048 6.144-2.048 0 0 2.048 0 2.048-2.048 2.048 0 4.096-2.048 6.144-2.048s2.048-2.048 4.096-2.048c2.048 0 2.048-2.048 4.096-2.048s4.096-2.048 6.144-2.048c0 0 2.048 0 2.048-2.048 2.048 0 4.096-2.048 6.144-2.048h2.048c2.048 0 4.096-2.048 8.192-2.048 0 0 0 0 2.048 0s6.144-2.048 8.192-2.048 12.288-4.096 18.432-4.096v-141.312h182.272v139.264c6.144 2.048 12.288 2.048 18.432 4.096 2.048 0 6.144 2.048 8.192 2.048 0 0 0 0 2.048 0s4.096 2.048 8.192 2.048h2.048c2.048 0 4.096 2.048 6.144 2.048 0 0 2.048 0 2.048 2.048 2.048 0 4.096 2.048 6.144 2.048s2.048 2.048 4.096 2.048c2.048 0 2.048 2.048 4.096 2.048s4.096 2.048 6.144 2.048c0 0 2.048 0 2.048 2.048 2.048 0 4.096 2.048 6.144 2.048h2.048c2.048 2.048 4.096 2.048 6.144 4.096s4.096 2.048 8.192 4.096c4.096 2.048 10.24 6.144 14.336 8.192l98.304-98.304 129.024 129.024-94.208 100.352c4.096 6.144 6.144 12.288 10.24 16.384 2.048 2.048 2.048 4.096 4.096 8.192zM512 713.387c157.696 0 286.72-129.024 286.72-286.72s-129.024-286.72-286.72-286.72c-157.696 0-286.72 129.024-286.72 286.72s129.024 286.72 286.72 286.72z" />
<glyph unicode="&#xe909;" glyph-name="car" d="M1026.048 393.899v-192.512c0-4.096-2.048-8.192-4.096-12.288-2.048-2.048-6.144-4.096-12.288-4.096h-47.104v-63.488c0-26.624-10.24-49.152-28.672-67.584s-40.96-28.672-67.584-28.672c-26.624 0-49.152 10.24-67.584 28.672s-28.672 40.96-28.672 67.584v63.488h-512v-63.488c0-26.624-10.24-49.152-28.672-67.584s-40.96-28.672-67.584-28.672c-26.624 0-49.152 10.24-67.584 28.672s-28.672 40.96-28.672 67.584v63.488h-49.152c-4.096 0-8.192 2.048-12.288 4.096-2.048 4.096-4.096 8.192-4.096 12.288v192.512c0 30.72 10.24 57.344 32.768 79.872s49.152 32.768 79.872 32.768h14.336l53.248 208.896c6.144 32.768 24.576 59.392 51.2 79.872s57.344 32.768 90.112 32.768h385.024c30.72 0 61.44-12.288 88.064-32.768s45.056-47.104 51.2-79.872l53.248-208.896h14.336c30.72 0 57.344-10.24 79.872-32.768 20.48-22.528 32.768-47.104 32.768-79.872zM217.088 289.451c16.384 16.384 22.528 34.816 22.528 57.344s-8.192 40.96-22.528 57.344c-16.384 14.336-34.816 22.528-57.344 22.528s-40.96-8.192-57.344-22.528c-16.384-16.384-22.528-34.816-22.528-57.344s8.192-40.96 22.528-57.344c16.384-16.384 34.816-22.528 57.344-22.528s40.96 8.192 57.344 22.528zM258.048 506.539h507.904l-45.056 178.176c0 2.048-2.048 6.144-6.144 8.192-4.096 4.096-8.192 4.096-10.24 4.096h-385.024c-2.048 0-6.144-2.048-10.24-4.096-4.096-4.096-6.144-6.144-6.144-8.192l-45.056-178.176zM921.6 289.451c16.384 16.384 22.528 34.816 22.528 57.344s-8.192 40.96-22.528 57.344c-16.384 16.384-34.816 22.528-57.344 22.528s-40.96-8.192-57.344-22.528c-16.384-16.384-22.528-34.816-22.528-57.344s8.192-40.96 22.528-57.344c16.384-16.384 34.816-22.528 57.344-22.528s40.96 8.192 57.344 22.528z" />
<glyph unicode="&#xe90a;" glyph-name="cctv" d="M234.668 938.872l605.323-605.323-234.599-234.599-605.323 605.323 234.599 234.599zM849.075 240.712l146.262-146.262-150.607-150.607-146.262 146.262 150.607 150.607zM442.368 948.907h139.264v-397.312h-139.264v397.312z" />
<glyph unicode="&#xe90b;" glyph-name="check" d="M509.952 561.835l-73.728 73.728-270.336-272.384-92.16 94.208-73.728-73.728 165.888-165.888zM1024 561.835l-73.728 73.728-135.168-135.168-135.168 135.168-73.728-73.728 137.216-135.168-137.216-135.168 73.728-73.728 135.168 135.168 135.168-135.168 73.728 73.728-135.168 135.168z" />
<glyph unicode="&#xe90c;" glyph-name="circle" d="M1024 426.667c0-282.77-229.23-512-512-512s-512 229.23-512 512c0 282.77 229.23 512 512 512s512-229.23 512-512z" />
<glyph unicode="&#xe90d;" glyph-name="circleo" d="M512 836.267c225.28 0 409.6-184.32 409.6-409.6s-184.32-409.6-409.6-409.6-409.6 184.32-409.6 409.6 184.32 409.6 409.6 409.6zM512 938.667c-282.624 0-512-229.376-512-512s229.376-512 512-512c282.624 0 512 229.376 512 512s-229.376 512-512 512v0z" />
<glyph unicode="&#xe90e;" glyph-name="co" d="M960.512 774.827h-897.024c-34.816 0-63.488-28.672-63.488-63.488v-571.392c0-32.768 28.672-61.44 63.488-61.44h899.072c34.816 0 63.488 28.672 63.488 63.488v569.344c-2.048 34.816-30.72 63.488-65.536 63.488zM409.6 248.491c-36.864-40.96-88.064-61.44-151.552-61.44-53.248 0-100.352 16.384-137.216 51.2-47.104 43.008-71.68 108.544-71.68 194.56 0 65.536 18.432 120.832 53.248 163.84 38.912 49.152 94.208 73.728 161.792 73.728 57.344 0 104.448-16.384 139.264-49.152 32.768-32.768 51.2-69.632 55.296-112.64l2.048-26.624h-131.072l-2.048 12.288c-4.096 16.384-10.24 26.624-20.48 36.864-8.192 8.192-22.528 12.288-43.008 12.288-24.576 0-43.008-8.192-57.344-24.576-14.336-20.48-22.528-53.248-22.528-96.256 0-34.816 8.192-63.488 22.528-83.968 8.192-10.24 22.528-24.576 57.344-24.576 22.528 0 38.912 8.192 51.2 24.576 6.144 8.192 10.24 20.48 14.336 34.816h133.12v-2.048c-6.144-47.104-24.576-90.112-53.248-122.88zM923.648 266.923c-40.96-55.296-100.352-81.92-176.128-81.92-69.632 0-126.976 24.576-167.936 71.68v0 0c-34.816 45.056-53.248 100.352-53.248 165.888 0 59.392 14.336 112.64 45.056 155.648 40.96 57.344 100.352 88.064 178.176 88.064 79.872 0 141.312-26.624 182.272-81.92 30.72-40.96 45.056-92.16 45.056-153.6-2.048-63.488-18.432-118.784-53.248-163.84zM751.616 539.307c-28.672 0-49.152-8.192-65.536-26.624-18.432-18.432-26.624-49.152-26.624-92.16 0-32.768 8.192-59.392 24.576-81.92 4.096-6.144 20.48-26.624 69.632-26.624 40.96 0 55.296 16.384 63.488 28.672 16.384 26.624 24.576 55.296 24.576 90.112s-8.192 61.44-24.576 81.92c-16.384 18.432-36.864 26.624-65.536 26.624z" />
<glyph unicode="&#xe90f;" glyph-name="corrective" d="M720.896 815.787c-114.688 114.688-280.576 149.504-425.984 102.4l278.528-278.528-274.432-276.48-278.528 280.576c-47.104-145.408-12.288-311.296 102.4-425.984s280.576-149.504 425.984-104.448l198.656-198.656 276.48 276.48-198.656 198.656c47.104 145.408 12.288 309.248-104.448 425.984z" />
<glyph unicode="&#xe910;" glyph-name="desktop" d="M0 875.179v-616.448h1024v616.448h-1024zM73.728 377.515v423.936h876.544v-423.936h-876.544zM0-21.845h1024v210.944h-1024v-210.944zM905.216 127.659c24.576 0 45.056-20.48 45.056-45.056s-20.48-45.056-45.056-45.056-45.056 20.48-45.056 45.056 22.528 45.056 45.056 45.056zM73.728 127.659h526.336v-88.064h-526.336v88.064z" />
<glyph unicode="&#xe911;" glyph-name="dict" d="M913.408 869.035c-8.192 8.192-16.384 16.384-16.384 16.384s-2.048-10.24-2.048-22.528v-886.784c0-12.288-10.24-22.528-22.528-22.528h-708.608c-12.288 0-16.384-8.192-6.144-16.384l6.144-6.144c8.192-8.192 24.576-16.384 36.864-16.384h708.608c12.288 0 22.528 10.24 22.528 22.528v888.832c0 12.288-8.192 30.72-16.384 38.912l-2.048 4.096zM114.688 938.667c-12.288 0-22.528-10.24-22.528-22.528v-870.4c0-12.288 10.24-22.528 22.528-22.528h688.128c12.288 0 22.528 10.24 22.528 22.528v870.4c0 12.288-10.24 22.528-22.528 22.528h-688.128zM688.128 686.763c0-12.288-10.24-22.528-22.528-22.528h-413.696c-12.288 0-22.528 10.24-22.528 22.528v83.968c0 12.288 10.24 22.528 22.528 22.528h411.648c12.288 0 22.528-10.24 22.528-22.528v-83.968z" />
<glyph unicode="&#xe912;" glyph-name="dish" d="M368.64 309.931c0 79.872 145.408 241.664 145.408 241.664s145.408-159.744 145.408-241.664-65.536-145.408-145.408-145.408-145.408 65.536-145.408 145.408zM1024 858.795c0 43.008-36.864 79.872-79.872 79.872h-864.256c-43.008 0-79.872-36.864-79.872-79.872v-862.208c0-45.056 36.864-81.92 79.872-81.92h862.208c45.056 0 79.872 36.864 79.872 79.872v864.256zM419.84 873.131c30.72 0 55.296-24.576 55.296-55.296s-24.576-53.248-55.296-53.248c-30.72 0-55.296 24.576-55.296 55.296s24.576 53.248 55.296 53.248zM278.528 873.131c30.72 0 55.296-24.576 55.296-55.296s-26.624-53.248-55.296-53.248-55.296 24.576-55.296 55.296 24.576 53.248 55.296 53.248zM135.168 873.131c30.72 0 55.296-24.576 55.296-55.296s-24.576-53.248-55.296-53.248-53.248 24.576-53.248 55.296 24.576 53.248 53.248 53.248zM942.080 76.459c0-45.056-36.864-79.872-79.872-79.872h-700.416c-43.008 0-79.872 36.864-79.872 79.872v557.056c0 43.008 36.864 79.872 79.872 79.872h698.368c45.056 0 79.872-36.864 79.872-79.872v-557.056z" />
<glyph unicode="&#xe913;" glyph-name="drai" d="M432.128 545.451v393.216h-126.976v-90.112h-305.152v-212.992h305.152v-90.112zM718.848 848.555v90.112h-126.976v-393.216h126.976v90.112h305.152v212.992zM305.152 121.515c0-114.688 92.16-206.848 206.848-206.848s206.848 92.16 206.848 206.848-217.088 387.072-217.088 387.072-196.608-272.384-196.608-387.072z" />
<glyph unicode="&#xe914;" glyph-name="drop" d="M290.816 348.843h59.392c18.432 0 30.72 14.336 30.72 32.768v243.712c0 18.432 14.336 30.72 32.768 30.72h200.704c18.432 0 32.768-14.336 32.768-30.72v-243.712c0-18.432 14.336-32.768 30.72-32.768h59.392c26.624 0 40.96-28.672 26.624-51.2l-223.232-313.344c-6.144-8.192-16.384-14.336-26.624-14.336s-20.48 4.096-26.624 14.336l-223.232 315.392c-14.336 20.48 0 49.152 26.624 49.152zM991.232 881.323h-958.464c-18.432 0-32.768-14.336-32.768-32.768v-532.48c0-16.384 14.336-32.768 32.768-32.768s32.768 14.336 32.768 32.768v425.984c0 18.432 16.384 32.768 32.768 32.768h825.344c18.432 0 32.768-14.336 32.768-32.768v-423.936c0-18.432 14.336-32.768 32.768-32.768s32.768 14.336 32.768 32.768v532.48c2.048 16.384-12.288 30.72-30.72 30.72z" />
<glyph unicode="&#xe915;" glyph-name="edit" d="M1024 938.667h-1024v-1024h1024v1024zM901.12 37.547h-778.24v778.24h581.632l-296.96-296.96 196.608-196.608 296.96 296.96v-581.632zM301.056 213.675l237.568 43.008-196.608 196.608z" />
<glyph unicode="&#xe916;" glyph-name="editrecc" d="M684.032 846.507h-63.488c-8.192 57.344-53.248 92.16-106.496 92.16s-98.304-34.816-106.496-92.16h-71.68v-122.88h348.16v122.88zM753.664 811.691v-161.792h-487.424v161.792h-143.36v-897.024h778.24v897.024h-147.456zM210.944-7.509l92.16 229.376 139.264-139.264-231.424-90.112zM503.808 148.139l-137.216 137.216 305.152 305.152 137.216-137.216-305.152-305.152z" />
<glyph unicode="&#xe917;" glyph-name="emerg" d="M512 938.667c-282.624 0-512-229.376-512-512s229.376-512 512-512 512 229.376 512 512-229.376 512-512 512zM450.56 37.547v163.84h129.024l2.048-163.84h-131.072zM581.632 262.827h-143.36l-28.672 552.96h204.8l-32.768-552.96z" />
<glyph unicode="&#xe918;" glyph-name="erepair" d="M520.192 105.131l73.728 186.368h-169.984l32.768 106.496 53.248 178.176-210.944-212.992-278.528 280.576c-47.104-145.408-12.288-311.296 102.4-425.984 108.544-108.544 260.096-145.408 397.312-112.64zM608.256 895.659c-98.304 47.104-210.944 55.296-313.344 22.528l245.76-245.76 67.584 223.232zM686.080-23.893l61.44-61.44 276.48 274.432-96.256 96.256zM1024 539.307h-186.368l120.832 399.36h-251.904l-172.032-565.248h180.224l-180.224-458.752z" />
<glyph unicode="&#xe919;" glyph-name="exca" d="M1024 813.739l-126.976 124.928-403.456-403.456-176.128 176.128-284.672-282.624 2.048-2.048c-86.016-126.976 10.24-389.12 51.2-430.080 32.768-32.768 301.056-135.168 430.080-51.2l2.048-2.048 284.672 282.624-182.272 182.272 403.456 405.504z" />
<glyph unicode="&#xe91a;" glyph-name="fiber" d="M512 938.667c-282.624 0-512-229.376-512-512 0-141.312 57.344-268.288 147.456-360.448 26.624 45.056 51.2 100.352 67.584 165.888 22.528 79.872 30.72 159.744 36.864 219.136-38.912 14.336-65.536 51.2-65.536 96.256 0 57.344 45.056 102.4 102.4 102.4s102.4-45.056 102.4-102.4c0-47.104-30.72-86.016-71.68-98.304-4.096-61.44-14.336-147.456-38.912-233.472-20.48-77.824-49.152-143.36-81.92-194.56 24.576-18.432 51.2-34.816 77.824-49.152 67.584 49.152 118.784 135.168 153.6 262.144 20.48 79.872 30.72 159.744 36.864 219.136-38.912 14.336-67.584 51.2-67.584 96.256 0 57.344 45.056 102.4 102.4 102.4s102.4-45.056 102.4-102.4c0-45.056-28.672-83.968-69.632-96.256-4.096-63.488-14.336-147.456-38.912-233.472-32.768-122.88-83.968-215.040-149.504-274.432 14.336-4.096 30.72-10.24 45.056-12.288 124.928 14.336 215.040 116.736 266.24 305.152 20.48 77.824 30.72 155.648 34.816 215.040-47.104 10.24-81.92 51.2-81.92 100.352 0 57.344 45.056 102.4 102.4 102.4s102.4-45.056 102.4-102.4c0-38.912-22.528-73.728-55.296-90.112-4.096-63.488-14.336-151.552-38.912-241.664-38.912-143.36-100.352-243.712-182.272-301.056 270.336 8.192 485.376 231.424 485.376 505.856 0 282.624-229.376 512-512 512z" />
<glyph unicode="&#xe91b;" glyph-name="field" d="M811.008 502.443l-71.68 71.68-165.888-163.84-86.016 83.968-71.68-71.68 157.696-153.6zM849.92 938.667h-696.32c-38.912 0-71.68-32.768-71.68-71.68v-890.88c0-32.768 28.672-61.44 61.44-61.44h706.56c40.96 0 71.68 32.768 71.68 71.68v880.64c0 38.912-32.768 71.68-71.68 71.68zM143.36 813.739c0 24.576 20.48 45.056 45.056 45.056h614.4c30.72 0 55.296-24.576 55.296-55.296v-784.384c0-24.576-20.48-45.056-45.056-45.056h-624.64c-24.576 0-45.056 20.48-45.056 45.056v794.624zM122.88 8.875v10.24c0-34.816 28.672-63.488 65.536-63.488h-10.24c-30.72 0-55.296 24.576-55.296 53.248zM901.12 856.747c0 32.768-28.672 61.44-61.44 61.44h10.24c28.672 0 51.2-22.528 51.2-51.2v-10.24zM286.72 78.507c34.816 0 61.44 28.672 61.44 65.536v4.096c0 36.864-26.624 65.536-61.44 65.536-30.72 0-55.296-22.528-61.44-53.248 0-4.096 0-8.192 0-12.288 0 0 0 0 0 0v0-4.096c0-4.096 0-8.192 0-12.288 6.144-30.72 30.72-53.248 61.44-53.248zM327.68 133.803c0 2.048 0 6.144 0 8.192 0-2.048 0-6.144 0-8.192zM327.68 146.091c0 4.096 0 6.144 0 10.24 0-4.096 0-6.144 0-10.24v0zM286.72 443.051c34.816 0 61.44 28.672 61.44 65.536v4.096c0 36.864-26.624 65.536-61.44 65.536-30.72 0-55.296-22.528-61.44-53.248 0-4.096 0-8.192 0-12.288v0-4.096c0-4.096 0-8.192 0-12.288 6.144-30.72 30.72-53.248 61.44-53.248zM327.68 498.347c0 2.048 0 6.144 0 8.192 0-2.048 0-4.096 0-8.192zM327.68 520.875c0-2.048 0-6.144 0-10.24 0 4.096 0 8.192 0 10.24zM286.72 260.779c34.816 0 61.44 28.672 61.44 65.536v4.096c0 36.864-26.624 65.536-61.44 65.536-30.72 0-55.296-22.528-61.44-53.248 0-4.096 0-8.192 0-12.288v0-4.096c0-4.096 0-8.192 0-12.288 6.144-30.72 30.72-53.248 61.44-53.248zM327.68 316.075c0 2.048 0 6.144 0 10.24 0-4.096 0-6.144 0-10.24zM327.68 338.603c0-2.048 0-6.144 0-8.192 0 2.048 0 6.144 0 8.192zM225.28 678.571c4.096-30.72 28.672-53.248 61.44-53.248 34.816 0 61.44 28.672 61.44 65.536v4.096c0 36.864-26.624 65.536-61.44 65.536-30.72 0-55.296-22.528-61.44-53.248 0-4.096 0-8.192 0-12.288 0 0 0 0 0 0v0-4.096c0 0 0 0 0 0 0-4.096 0-8.192 0-12.288zM327.68 690.859c0-4.096 0-6.144 0-10.24 0 4.096 0 6.144 0 10.24v0zM327.68 694.955c0 4.096 0 6.144 0 10.24 0-4.096 0-8.192 0-10.24v0z" />
<glyph unicode="&#xe91c;" glyph-name="follow" d="M620.544 846.507h-61.44c-6.144 53.248-51.2 92.16-104.448 92.16s-100.352-38.912-106.496-92.16h-73.728v-122.88h346.112v122.88zM708.608 938.667v-45.056h206.848v-866.304h47.104v911.36zM690.176 805.547v-157.696h-483.328v157.696h-145.408v-890.88h778.24v890.88h-147.456z" />
<glyph unicode="&#xe91d;" glyph-name="fridge" d="M264.192-42.325c0-24.576 16.384-43.008 36.864-43.008h419.84c20.48 0 38.912 18.432 38.912 43.008v620.544h-495.616v-620.544zM323.584 496.299c0 12.288 10.24 24.576 22.528 24.576s22.528-10.24 22.528-24.576v-86.016c0-12.288-10.24-24.576-22.528-24.576s-22.528 10.24-22.528 24.576v86.016zM720.896 938.667h-419.84c-20.48 0-36.864-20.48-36.864-45.056v-290.816h495.616v290.816c0 24.576-18.432 45.056-38.912 45.056zM368.64 721.579c0-12.288-10.24-24.576-22.528-24.576s-22.528 10.24-22.528 24.576v86.016c0 12.288 10.24 24.576 22.528 24.576s22.528-10.24 22.528-24.576v-86.016z" />
<glyph unicode="&#xe91e;" glyph-name="garage" d="M1019.904 436.907l-139.264 114.688v260.096c0 6.144-2.048 10.24-6.144 14.336s-8.192 6.144-14.336 6.144h-122.88c-6.144 0-10.24-2.048-14.336-6.144s-6.144-8.192-6.144-14.336v-122.88l-155.648 129.024c-14.336 10.24-30.72 16.384-49.152 16.384-20.48 0-34.816-6.144-49.152-16.384l-458.752-380.928c-4.096-4.096-6.144-8.192-6.144-14.336 0-4.096 2.048-10.24 4.096-14.336l38.912-47.104c4.096-2.048 8.192-6.144 14.336-6.144 4.096 0 10.24 0 14.336 4.096l440.32 366.592 438.272-366.592c4.096-2.048 8.192-4.096 14.336-4.096h2.048c6.144 0 10.24 2.048 14.336 6.144l38.912 47.104c4.096 4.096 4.096 10.24 8.192 14.336 0 6.144-2.048 10.24-6.144 14.336zM874.496 369.323l-364.544 301.056-366.592-301.056v-2.048c0-2.048 0-2.048 0-2.048v-305.152c0-10.24 4.096-20.48 12.288-28.672s18.432-12.288 28.672-12.288h106.496v104.448h438.272v-104.448h106.496c10.24 0 20.48 4.096 28.672 12.288s12.288 18.432 12.288 28.672v305.152c0 2.048 0 2.048-2.048 4.096zM729.088 170.667h-438.272v104.448h438.272v-104.448zM729.088 322.219h-438.272v104.448h438.272v-104.448z" />
<glyph unicode="&#xe91f;" glyph-name="gear" d="M854.016 250.539c2.048 2.048 2.048 4.096 4.096 6.144v2.048c0 2.048 2.048 4.096 2.048 6.144 0 0 0 2.048 2.048 2.048 0 2.048 2.048 4.096 2.048 6.144s2.048 2.048 2.048 4.096c0 2.048 2.048 2.048 2.048 4.096s2.048 4.096 2.048 6.144c0 0 0 2.048 2.048 2.048 0 2.048 2.048 4.096 2.048 6.144v2.048c0 2.048 2.048 4.096 2.048 8.192 0 0 0 0 0 2.048s2.048 6.144 2.048 8.192 4.096 12.288 4.096 18.432h141.312v182.272h-139.264c-2.048 8.192-4.096 12.288-4.096 18.432 0 2.048-2.048 6.144-2.048 8.192s-2.048 4.096-2.048 8.192v2.048c0 2.048-2.048 4.096-2.048 6.144 0 0 0 2.048-2.048 2.048 0 2.048-2.048 4.096-2.048 6.144s-2.048 2.048-2.048 4.096c0 2.048-2.048 2.048-2.048 4.096s-2.048 4.096-2.048 6.144c0 0 0 2.048-2.048 2.048 0 2.048-2.048 4.096-2.048 6.144v2.048c-2.048 2.048-2.048 4.096-4.096 6.144s-2.048 4.096-4.096 8.192-6.144 10.24-8.192 16.384l98.304 98.304-129.024 129.024-102.4-96.256c-6.144 4.096-10.24 6.144-16.384 8.192-2.048 2.048-4.096 2.048-8.192 4.096-2.048 2.048-4.096 2.048-6.144 4.096h-2.048c-2.048 0-4.096 2.048-6.144 2.048 0 0-2.048 0-2.048 2.048-2.048 0-4.096 2.048-6.144 2.048s-2.048 2.048-4.096 2.048c-2.048 0-2.048 2.048-4.096 2.048s-4.096 2.048-6.144 2.048c0 0 0 0 0 0s0 0 0 2.048c0 0-2.048 0-4.096 0 0 0-2.048 0-4.096 0h-2.048c-2.048 0-4.096 2.048-8.192 2.048 0 0 0 0-2.048 0s-6.144 2.048-8.192 2.048c-6.144 6.144-10.24 8.192-18.432 8.192v141.312h-182.272v-141.312c-6.144 0-10.24-2.048-16.384-4.096-2.048 0-6.144-2.048-8.192-2.048s-4.096-2.048-8.192-2.048h-2.048c-2.048 0-4.096-2.048-6.144-2.048 0 0-2.048 0-2.048-2.048-2.048 0-4.096-2.048-6.144-2.048s-2.048-2.048-4.096-2.048c-2.048 0-2.048-2.048-4.096-2.048s-4.096-2.048-6.144-2.048c0 0-2.048 0-2.048-2.048-2.048 0-4.096-2.048-6.144-2.048h-2.048c-2.048-2.048-4.096-2.048-6.144-4.096s-4.096-2.048-8.192-4.096-10.24-6.144-16.384-8.192l-98.304 98.304-129.024-129.024 96.256-100.352c-4.096-6.144-6.144-10.24-8.192-16.384-2.048-2.048-2.048-4.096-4.096-8.192-2.048-2.048-2.048-4.096-4.096-6.144v-2.048c0-2.048-2.048-4.096-2.048-6.144 0 0 0-2.048-2.048-2.048 0-2.048-2.048-4.096-2.048-6.144s-2.048-2.048-2.048-4.096c0-2.048-2.048-2.048-2.048-4.096s-2.048-4.096-2.048-6.144c0 0 0-2.048-2.048-2.048 0-2.048-2.048-4.096-2.048-6.144v-2.048c0-2.048-2.048-4.096-2.048-8.192 0 0 0 0 0-2.048s-2.048-6.144-2.048-8.192c-4.096-6.144-6.144-10.24-8.192-18.432h-139.264v-182.272h139.264c2.048-6.144 2.048-12.288 4.096-18.432 0-2.048 2.048-6.144 2.048-8.192 0 0 0 0 0-2.048s2.048-4.096 2.048-8.192v-2.048c0-2.048 2.048-4.096 2.048-6.144 0 0 0-2.048 2.048-2.048 0-2.048 2.048-4.096 2.048-6.144s2.048-2.048 2.048-4.096c0-2.048 2.048-2.048 2.048-4.096s2.048-4.096 2.048-6.144c0 0 0-2.048 2.048-2.048 0-2.048 2.048-4.096 2.048-6.144v-2.048c2.048-2.048 2.048-4.096 4.096-6.144s2.048-4.096 4.096-8.192 6.144-10.24 8.192-16.384l-98.304-98.304 129.024-129.024 98.304 98.304c6.144-4.096 10.24-6.144 16.384-8.192 2.048-2.048 4.096-2.048 8.192-4.096 2.048-2.048 4.096-2.048 6.144-4.096h2.048c2.048 0 4.096-2.048 6.144-2.048 0 0 2.048 0 2.048-2.048 2.048 0 4.096-2.048 6.144-2.048s2.048-2.048 4.096-2.048c2.048 0 2.048-2.048 4.096-2.048s4.096-2.048 6.144-2.048c0 0 2.048 0 2.048-2.048 2.048 0 4.096-2.048 6.144-2.048h2.048c2.048 0 4.096-2.048 8.192-2.048 0 0 0 0 2.048 0s6.144-2.048 8.192-2.048 12.288-4.096 18.432-4.096v-141.312h182.272v139.264c6.144 2.048 12.288 2.048 18.432 4.096 2.048 0 6.144 2.048 8.192 2.048 0 0 0 0 2.048 0s4.096 2.048 8.192 2.048h2.048c2.048 0 4.096 2.048 6.144 2.048 0 0 2.048 0 2.048 2.048 2.048 0 4.096 2.048 6.144 2.048s2.048 2.048 4.096 2.048c2.048 0 2.048 2.048 4.096 2.048s4.096 2.048 6.144 2.048c0 0 2.048 0 2.048 2.048 2.048 0 4.096 2.048 6.144 2.048h2.048c2.048 2.048 4.096 2.048 6.144 4.096s4.096 2.048 8.192 4.096c4.096 2.048 10.24 6.144 14.336 8.192l98.304-98.304 129.024 129.024-94.208 100.352c4.096 6.144 6.144 12.288 10.24 16.384 2.048 2.048 2.048 4.096 4.096 8.192zM512 213.675c-116.736 0-212.992 94.208-212.992 212.992s96.256 212.992 212.992 212.992 212.992-96.256 212.992-212.992-96.256-212.992-212.992-212.992z" />
<glyph unicode="&#xe920;" glyph-name="get" d="M772.096 187.051c-14.336 26.624-22.528 55.296-26.624 77.824 100.352 57.344 169.984 178.176 169.984 317.44 0 194.56-135.168 352.256-301.056 352.256-4.096 0-8.192 0-12.288 0s-8.192 0-12.288 0c-4.096 0-6.144 0-10.24 0s-6.144 0-10.24 0c-28.672 0-57.344-4.096-83.968-14.336-26.624 8.192-55.296 14.336-83.968 14.336-165.888 0-301.056-157.696-301.056-352.256 0-139.264 69.632-260.096 169.984-317.44-4.096-22.528-10.24-51.2-26.624-77.824-122.88-22.528-225.28-133.12-243.712-272.384h1017.856c-14.336 139.264-116.736 249.856-245.76 272.384zM806.912-58.709c-28.672 124.928-122.88 225.28-243.712 245.76-14.336 26.624-22.528 55.296-26.624 77.824 100.352 57.344 169.984 178.176 169.984 317.44 0 137.216-65.536 256-163.84 313.344 16.384 6.144 32.768 8.192 51.2 10.24 143.36-12.288 253.952-151.552 253.952-323.584 0-124.928-61.44-239.616-155.648-294.912-10.24-6.144-14.336-16.384-12.288-28.672 6.144-32.768 16.384-63.488 30.72-88.064 4.096-6.144 10.24-10.24 18.432-12.288 108.544-18.432 196.608-106.496 223.232-219.136h-145.408z" />
<glyph unicode="&#xe921;" glyph-name="hamburger" d="M0 938.667h1024v-229.376h-1024v229.376zM0 541.355h1024v-229.376h-1024v229.376zM0 144.043h1024v-229.376h-1024v229.376z" />
<glyph unicode="&#xe922;" glyph-name="hang" d="M507.904 834.219v0l-251.904 2.048c-12.288 59.392-63.488 102.4-124.928 102.4-69.632 0-126.976-59.392-126.976-131.072 0-59.392 38.912-110.592 92.16-126.976l4.096-253.952 512-512 407.552 407.552-512 512zM24.576 807.595c0 61.44 49.152 110.592 106.496 110.592 49.152 0 90.112-34.816 104.448-81.92l-139.264 2.048 2.048-137.216c-43.008 14.336-73.728 57.344-73.728 106.496zM235.52 774.827c-10.24-36.864-38.912-67.584-75.776-75.776 2.048 18.432 10.24 36.864 24.576 51.2s32.768 22.528 51.2 24.576zM311.296 621.227c-34.816-34.816-92.16-34.816-126.976 0-16.384 16.384-24.576 34.816-26.624 55.296 47.104 10.24 86.016 49.152 98.304 98.304 20.48-2.048 40.96-10.24 55.296-26.624 36.864-32.768 36.864-90.112 0-126.976z" />
<glyph unicode="&#xe923;" glyph-name="hipressure" d="M512 938.667c-282.624 0-512-229.376-512-512s229.376-512 512-512 512 229.376 512 512-229.376 512-512 512zM620.544 408.235l-6.144-24.576c0 0 0-2.048 0-2.048v-4.096c-10.24-36.864-40.96-67.584-81.92-73.728-55.296-10.24-110.592 26.624-120.832 83.968-10.24 55.296 26.624 110.592 83.968 120.832 12.288 2.048 22.528 2.048 32.768 0l8.192 4.096 10.24 4.096 200.704 83.968-126.976-192.512zM765.952 637.611c-61.44 71.68-151.552 114.688-251.904 114.688s-190.464-43.008-251.904-114.688h-155.648c77.824 147.456 231.424 245.76 407.552 245.76s329.728-98.304 407.552-245.76h-155.648z" />
<glyph unicode="&#xe924;" glyph-name="home" d="M1019.904 408.235l-38.912-47.104c-4.096-4.096-8.192-6.144-14.336-6.144h-2.048c-6.144 0-10.24 2.048-14.336 4.096l-438.272 366.592-440.32-366.592c-4.096-4.096-10.24-4.096-14.336-4.096-6.144 0-10.24 4.096-14.336 6.144l-38.912 47.104c-2.048 4.096-4.096 10.24-4.096 14.336 0 6.144 2.048 10.24 6.144 14.336l458.752 380.928c14.336 10.24 28.672 16.384 49.152 16.384 18.432 0 34.816-6.144 49.152-16.384l155.648-129.024v122.88c0 6.144 2.048 10.24 6.144 14.336s8.192 6.144 14.336 6.144h122.88c6.144 0 10.24-2.048 14.336-6.144s6.144-8.192 6.144-14.336v-260.096l139.264-114.688c4.096-4.096 6.144-8.192 6.144-14.336-4.096-4.096-4.096-10.24-8.192-14.336zM878.592 365.227v-305.152c0-10.24-4.096-20.48-12.288-28.672s-18.432-12.288-28.672-12.288h-243.712v243.712h-163.84v-243.712h-243.712c-10.24 0-20.48 4.096-28.672 12.288s-12.288 18.432-12.288 28.672v305.152c0 0 0 0 0 2.048 0 0 0 2.048 0 2.048l366.592 301.056 364.544-301.056c2.048-2.048 2.048-2.048 2.048-4.096z" />
<glyph unicode="&#xe925;" glyph-name="info" d="M620.544 72.363v579.584h-389.12v-102.4h172.032v-477.184h-172.032v-157.696h561.152v157.696zM614.4 836.267c0-56.554-45.846-102.4-102.4-102.4s-102.4 45.846-102.4 102.4c0 56.554 45.846 102.4 102.4 102.4s102.4-45.846 102.4-102.4z" />
<glyph unicode="&#xe926;" glyph-name="iptv" d="M184.32 37.547h655.36v-53.248h-655.36v53.248zM0 869.035v-778.24h1024v778.24c0 0-1024 0-1024 0zM880.64 213.675h-737.28v532.48h737.28v-532.48zM235.52 686.763h92.16v-413.696h-92.16v413.696zM751.616 653.995c-24.576 22.528-55.296 32.768-94.208 32.768h-186.368v-413.696h92.16v157.696h96.256c43.008 0 75.776 14.336 98.304 38.912 20.48 24.576 32.768 55.296 32.768 90.112-2.048 38.912-14.336 71.68-38.912 94.208zM698.368 559.787c0-26.624-8.192-32.768-12.288-34.816-10.24-8.192-24.576-10.24-43.008-10.24h-79.872v88.064h79.872c20.48 0 30.72-4.096 36.864-6.144 8.192-4.096 18.432-12.288 18.432-36.864z" />
<glyph unicode="&#xe927;" glyph-name="laptop" d="M122.88 264.875h778.24c20.48 0 34.816 16.384 34.816 34.816v440.32c0 20.48-16.384 34.816-34.816 34.816h-778.24c-20.48 0-34.816-16.384-34.816-34.816v-438.272c0-20.48 16.384-36.864 34.816-36.864zM874.496 672.427v-274.432c0-20.48-16.384-34.816-34.816-34.816h-655.36c-20.48 0-34.816 16.384-34.816 34.816v274.432c0 18.432 16.384 32.768 34.816 32.768h655.36c20.48 0 34.816-14.336 34.816-32.768zM993.28 176.811h-962.56c-18.432 0-30.72-14.336-30.72-30.72v-34.816c0-18.432 14.336-32.768 30.72-32.768h960.512c18.432 0 30.72 14.336 30.72 30.72v34.816c2.048 18.432-12.288 32.768-28.672 32.768z" />
<glyph unicode="&#xe928;" glyph-name="leak" d="M182.272 938.667h841.728v-368.64h-464.896zM270.336 707.243c0 0-272.384-362.496-272.384-516.096s120.832-276.48 272.384-276.48 272.384 124.928 272.384 276.48-272.384 516.096-272.384 516.096z" />
<glyph unicode="&#xe929;" glyph-name="leakmain" d="M686.080 907.947c92.16-157.696 186.368-342.016 186.368-444.416 0-198.656-161.792-360.448-360.448-360.448s-360.448 161.792-360.448 360.448c0 102.4 94.208 286.72 186.368 444.416-196.608-71.68-337.92-260.096-337.92-481.28 0-282.624 229.376-512 512-512s512 229.376 512 512c0 221.184-141.312 409.6-337.92 481.28zM286.72 492.203c0 122.88 225.28 446.464 225.28 446.464s225.28-323.584 225.28-446.464-100.352-225.28-225.28-225.28-225.28 100.352-225.28 225.28z" />
<glyph unicode="&#xe92a;" glyph-name="leakrout" d="M270.336 326.315c0 133.12 239.616 477.184 239.616 477.184s239.616-344.064 239.616-477.184-106.496-239.616-239.616-239.616-239.616 106.496-239.616 239.616zM512-85.333c-282.624 0-512 229.376-512 512s229.376 512 512 512c282.624 0 512-229.376 512-512s-229.376-512-512-512zM512 848.555c-231.424 0-421.888-190.464-421.888-421.888s190.464-421.888 421.888-421.888 421.888 190.464 421.888 421.888-190.464 421.888-421.888 421.888z" />
<glyph unicode="&#xe92b;" glyph-name="line" d="M731.136 465.579l-112.64-241.664-180.224 714.752-204.8-473.088h-233.472v-86.016h307.2l104.448 237.568 174.080-696.32 219.136 458.752h219.136v86.016z" />
<glyph unicode="&#xe92c;" glyph-name="lowpressure" d="M0 426.667c0-282.624 229.376-512 512-512s512 229.376 512 512-229.376 512-512 512c-282.624 0-512-229.376-512-512zM274.432 598.699l210.944-88.064 8.192-4.096c10.24 2.048 22.528 2.048 32.768 0 55.296-10.24 94.208-63.488 83.968-120.832-10.24-55.296-63.488-94.208-120.832-83.968-40.96 8.192-71.68 36.864-81.92 73.728v0 4.096c0 0 0 2.048 0 2.048l-6.144 24.576-126.976 192.512zM102.4 637.611c77.824 147.456 231.424 245.76 407.552 245.76s329.728-98.304 407.552-245.76h-155.648c-61.44 71.68-151.552 114.688-251.904 114.688s-190.464-43.008-251.904-114.688h-155.648z" />
<glyph unicode="&#xe92d;" glyph-name="manager" d="M681.984 162.475l-30.72 43.008-274.432-8.192-55.296-28.672zM854.016 250.539c2.048 2.048 2.048 4.096 4.096 6.144v2.048c0 2.048 2.048 4.096 2.048 6.144 0 0 0 2.048 2.048 2.048 0 2.048 2.048 4.096 2.048 6.144s2.048 2.048 2.048 4.096c0 2.048 2.048 2.048 2.048 4.096s2.048 4.096 2.048 6.144c0 0 0 2.048 2.048 2.048 0 2.048 2.048 4.096 2.048 6.144v2.048c0 2.048 2.048 4.096 2.048 8.192 0 0 0 0 0 2.048s2.048 6.144 2.048 8.192 4.096 12.288 4.096 18.432h141.312v182.272h-139.264c-2.048 8.192-4.096 12.288-4.096 18.432 0 2.048-2.048 6.144-2.048 8.192s-2.048 4.096-2.048 8.192v2.048c0 2.048-2.048 4.096-2.048 6.144 0 0 0 2.048-2.048 2.048 0 2.048-2.048 4.096-2.048 6.144s-2.048 2.048-2.048 4.096c0 2.048-2.048 2.048-2.048 4.096s-2.048 4.096-2.048 6.144c0 0 0 2.048-2.048 2.048 0 2.048-2.048 4.096-2.048 6.144v2.048c-2.048 2.048-2.048 4.096-4.096 6.144s-2.048 4.096-4.096 8.192-6.144 10.24-8.192 16.384l98.304 98.304-129.024 129.024-102.4-96.256c-6.144 4.096-10.24 6.144-16.384 8.192-2.048 2.048-4.096 2.048-8.192 4.096-2.048 2.048-4.096 2.048-6.144 4.096h-2.048c-2.048 0-4.096 2.048-6.144 2.048 0 0-2.048 0-2.048 2.048-2.048 0-4.096 2.048-6.144 2.048s-2.048 2.048-4.096 2.048c-2.048 0-2.048 2.048-4.096 2.048s-4.096 2.048-6.144 2.048c0 0-2.048 0-2.048 2.048-2.048 0-4.096 2.048-6.144 2.048h-2.048c-2.048 0-4.096 2.048-8.192 2.048 0 0 0 0-2.048 0s-6.144 2.048-8.192 2.048c-6.144 4.096-10.24 6.144-18.432 6.144v141.312h-182.272v-141.312c-6.144 0-10.24-2.048-16.384-4.096-2.048 0-6.144-2.048-8.192-2.048s-4.096-2.048-8.192-2.048h-2.048c-2.048 0-4.096-2.048-6.144-2.048 0 0-2.048 0-2.048-2.048-2.048 0-4.096-2.048-6.144-2.048s-2.048-2.048-4.096-2.048c-2.048 0-2.048-2.048-4.096-2.048s-4.096-2.048-6.144-2.048c0 0-2.048 0-2.048-2.048-2.048 0-4.096-2.048-6.144-2.048h-2.048c-2.048-2.048-4.096-2.048-6.144-4.096s-4.096-2.048-8.192-4.096-10.24-6.144-16.384-8.192l-98.304 98.304-129.024-129.024 96.256-100.352c-4.096-6.144-6.144-10.24-8.192-16.384-2.048-2.048-2.048-4.096-4.096-8.192-2.048-2.048-2.048-4.096-4.096-6.144v-2.048c0-2.048-2.048-4.096-2.048-6.144 0 0 0-2.048-2.048-2.048 0-2.048-2.048-4.096-2.048-6.144s-2.048-2.048-2.048-4.096c0-2.048-2.048-2.048-2.048-4.096s-2.048-4.096-2.048-6.144c0 0 0-2.048-2.048-2.048 0-2.048-2.048-4.096-2.048-6.144v-2.048c0-2.048-2.048-4.096-2.048-8.192 0 0 0 0 0-2.048s-2.048-6.144-2.048-8.192c-4.096-6.144-6.144-10.24-8.192-18.432h-139.264v-182.272h139.264c2.048-6.144 2.048-12.288 4.096-18.432 0-2.048 2.048-6.144 2.048-8.192 0 0 0 0 0-2.048s2.048-4.096 2.048-8.192v-2.048c0-2.048 2.048-4.096 2.048-6.144 0 0 0-2.048 2.048-2.048 0-2.048 2.048-4.096 2.048-6.144s2.048-2.048 2.048-4.096c0-2.048 2.048-2.048 2.048-4.096s2.048-4.096 2.048-6.144c0 0 0-2.048 2.048-2.048 0-2.048 2.048-4.096 2.048-6.144v-2.048c2.048-2.048 2.048-4.096 4.096-6.144s2.048-4.096 4.096-8.192 6.144-10.24 8.192-16.384l-98.304-98.304 129.024-129.024 98.304 98.304c6.144-4.096 10.24-6.144 16.384-8.192 2.048-2.048 4.096-2.048 8.192-4.096 2.048-2.048 4.096-2.048 6.144-4.096h2.048c2.048 0 4.096-2.048 6.144-2.048 0 0 2.048 0 2.048-2.048 2.048 0 4.096-2.048 6.144-2.048s2.048-2.048 4.096-2.048c2.048 0 2.048-2.048 4.096-2.048s4.096-2.048 6.144-2.048c0 0 2.048 0 2.048-2.048 2.048 0 4.096-2.048 6.144-2.048h2.048c2.048 0 4.096-2.048 8.192-2.048 0 0 0 0 2.048 0s6.144-2.048 8.192-2.048 12.288-4.096 18.432-4.096v-141.312h182.272v139.264c6.144 2.048 12.288 2.048 18.432 4.096 2.048 0 6.144 2.048 8.192 2.048 0 0 0 0 2.048 0s4.096 2.048 8.192 2.048h2.048c2.048 0 4.096 2.048 6.144 2.048 0 0 2.048 0 2.048 2.048 2.048 0 4.096 2.048 6.144 2.048s2.048 2.048 4.096 2.048c2.048 0 2.048 2.048 4.096 2.048s4.096 2.048 6.144 2.048c0 0 2.048 0 2.048 2.048 2.048 0 4.096 2.048 6.144 2.048h2.048c2.048 2.048 4.096 2.048 6.144 4.096s4.096 2.048 8.192 4.096c4.096 2.048 10.24 6.144 14.336 8.192l98.304-98.304 129.024 129.024-94.208 100.352c4.096 6.144 6.144 12.288 10.24 16.384 2.048 2.048 2.048 4.096 4.096 8.192zM681.984 197.291c-22.528 26.624-53.248 45.056-86.016 51.2-8.192 14.336-12.288 28.672-14.336 40.96 51.2 28.672 88.064 92.16 88.064 163.84 0 100.352-69.632 182.272-155.648 182.272h-4.096c-86.016 0-155.648-81.92-155.648-182.272 0-71.68 36.864-135.168 88.064-163.84-2.048-12.288-6.144-26.624-14.336-40.96-32.768-6.144-63.488-24.576-86.016-51.2-69.632 51.2-116.736 135.168-116.736 229.376 0 157.696 129.024 286.72 286.72 286.72s286.72-129.024 286.72-286.72c0-94.208-45.056-178.176-116.736-229.376z" />
<glyph unicode="&#xe92e;" glyph-name="map" d="M802.816 647.851c0 161.792-131.072 290.816-290.816 290.816s-290.816-129.024-290.816-290.816 290.816-733.184 290.816-733.184 290.816 573.44 290.816 733.184zM350.208 658.091c0 90.112 71.68 161.792 161.792 161.792s161.792-71.68 161.792-161.792c0-90.112-71.68-161.792-161.792-161.792s-161.792 73.728-161.792 161.792z" />
<glyph unicode="&#xe92f;" glyph-name="markn" d="M1024 449.195c-12.288 272.384-237.568 489.472-512 489.472s-499.712-217.088-512-489.472v0-51.2c14.336-262.144 225.28-471.040 487.424-483.328v-4.096h51.2v4.096c260.096 14.336 471.040 223.232 485.376 483.328v0 51.2zM487.424 858.795v-315.392l-104.448 104.448-94.208-94.208 106.496-106.496h-315.392c10.24 223.232 186.368 399.36 407.552 411.648zM110.592 397.995h278.528l-100.352-100.352 94.208-94.208 104.448 104.448v-315.392c-219.136 14.336-393.216 186.368-407.552 405.504h30.72zM538.624 305.835l102.4-102.4 94.208 94.208-100.352 100.352h309.248c-14.336-217.088-188.416-391.168-405.504-403.456v311.296zM913.408 449.195h-284.672l106.496 106.496-94.208 94.208-102.4-102.4v311.296c219.136-14.336 395.264-190.464 405.504-409.6h-30.72z" />
<glyph unicode="&#xe930;" glyph-name="triangle" d="M0 37.547l512 768 512-768z" />
<glyph unicode="&#xe931;" glyph-name="triangleo" d="M512 694.955l397.312-595.968h-794.624l397.312 595.968zM512 805.547l-512-768h1024l-512 768z" />
<glyph unicode="&#xe932;" glyph-name="vaultre" d="M854.016 250.539c2.048 2.048 2.048 4.096 4.096 6.144v2.048c0 2.048 2.048 4.096 2.048 6.144 0 0 0 2.048 2.048 2.048 0 2.048 2.048 4.096 2.048 6.144s2.048 2.048 2.048 4.096c0 2.048 2.048 2.048 2.048 4.096s2.048 4.096 2.048 6.144c0 0 0 2.048 2.048 2.048 0 2.048 2.048 4.096 2.048 6.144v2.048c0 2.048 2.048 4.096 2.048 8.192 0 0 0 0 0 2.048s2.048 6.144 2.048 8.192 4.096 12.288 4.096 18.432h141.312v182.272h-139.264c-2.048 8.192-4.096 12.288-4.096 18.432 0 2.048-2.048 6.144-2.048 8.192s-2.048 4.096-2.048 8.192v2.048c0 2.048-2.048 4.096-2.048 6.144 0 0 0 2.048-2.048 2.048 0 2.048-2.048 4.096-2.048 6.144s-2.048 2.048-2.048 4.096c0 2.048-2.048 2.048-2.048 4.096s-2.048 4.096-2.048 6.144c0 0 0 2.048-2.048 2.048 0 2.048-2.048 4.096-2.048 6.144v2.048c-2.048 2.048-2.048 4.096-4.096 6.144s-2.048 4.096-4.096 8.192-6.144 10.24-8.192 16.384l98.304 98.304-129.024 129.024-102.4-96.256c-6.144 4.096-10.24 6.144-16.384 8.192-2.048 2.048-4.096 2.048-8.192 4.096-2.048 2.048-4.096 2.048-6.144 4.096h-2.048c-2.048 0-4.096 2.048-6.144 2.048 0 0-2.048 0-2.048 2.048-2.048 0-4.096 2.048-6.144 2.048s-2.048 2.048-4.096 2.048c-2.048 0-2.048 2.048-4.096 2.048s-4.096 2.048-6.144 2.048c0 0 0 0 0 2.048 0 0-2.048 0-4.096 0 0 0-2.048 0-4.096 0h-2.048c-2.048 0-4.096 2.048-8.192 2.048 0 0 0 0-2.048 0s-6.144 2.048-8.192 2.048c-6.144 6.144-10.24 8.192-18.432 8.192v141.312h-182.272v-141.312c-6.144 0-10.24-2.048-16.384-4.096-2.048 0-6.144-2.048-8.192-2.048s-4.096-2.048-8.192-2.048h-2.048c-2.048 0-4.096-2.048-6.144-2.048 0 0-2.048 0-2.048-2.048-2.048 0-4.096-2.048-6.144-2.048s-2.048-2.048-4.096-2.048c-2.048 0-2.048-2.048-4.096-2.048s-4.096-2.048-6.144-2.048c0 0-2.048 0-2.048-2.048-2.048 0-4.096-2.048-6.144-2.048h-2.048c-2.048-2.048-4.096-2.048-6.144-4.096s-4.096-2.048-8.192-4.096-10.24-6.144-16.384-8.192l-98.304 98.304-129.024-129.024 96.256-100.352c-4.096-6.144-6.144-10.24-8.192-16.384-2.048-2.048-2.048-4.096-4.096-8.192-2.048-2.048-2.048-4.096-4.096-6.144v-2.048c0-2.048-2.048-4.096-2.048-6.144 0 0 0-2.048-2.048-2.048 0-2.048-2.048-4.096-2.048-6.144s-2.048-2.048-2.048-4.096c0-2.048-2.048-2.048-2.048-4.096s-2.048-4.096-2.048-6.144c0 0 0-2.048-2.048-2.048 0-2.048-2.048-4.096-2.048-6.144v-2.048c0-2.048-2.048-4.096-2.048-8.192 0 0 0 0 0-2.048s-2.048-6.144-2.048-8.192c-4.096-6.144-6.144-10.24-8.192-18.432h-139.264v-182.272h139.264c2.048-6.144 2.048-12.288 4.096-18.432 0-2.048 2.048-6.144 2.048-8.192 0 0 0 0 0-2.048s2.048-4.096 2.048-8.192v-2.048c0-2.048 2.048-4.096 2.048-6.144 0 0 0-2.048 2.048-2.048 0-2.048 2.048-4.096 2.048-6.144s2.048-2.048 2.048-4.096c0-2.048 2.048-2.048 2.048-4.096s2.048-4.096 2.048-6.144c0 0 0-2.048 2.048-2.048 0-2.048 2.048-4.096 2.048-6.144v-2.048c2.048-2.048 2.048-4.096 4.096-6.144s2.048-4.096 4.096-8.192 6.144-10.24 8.192-16.384l-98.304-98.304 129.024-129.024 98.304 98.304c6.144-4.096 10.24-6.144 16.384-8.192 2.048-2.048 4.096-2.048 8.192-4.096 2.048-2.048 4.096-2.048 6.144-4.096h2.048c2.048 0 4.096-2.048 6.144-2.048 0 0 2.048 0 2.048-2.048 2.048 0 4.096-2.048 6.144-2.048s2.048-2.048 4.096-2.048c2.048 0 2.048-2.048 4.096-2.048s4.096-2.048 6.144-2.048c0 0 2.048 0 2.048-2.048 2.048 0 4.096-2.048 6.144-2.048h2.048c2.048 0 4.096-2.048 8.192-2.048 0 0 0 0 2.048 0s6.144-2.048 8.192-2.048 12.288-4.096 18.432-4.096v-141.312h182.272v139.264c6.144 2.048 12.288 2.048 18.432 4.096 2.048 0 6.144 2.048 8.192 2.048 0 0 0 0 2.048 0s4.096 2.048 8.192 2.048h2.048c2.048 0 4.096 2.048 6.144 2.048 0 0 2.048 0 2.048 2.048 2.048 0 4.096 2.048 6.144 2.048s2.048 2.048 4.096 2.048c2.048 0 2.048 2.048 4.096 2.048s4.096 2.048 6.144 2.048c0 0 2.048 0 2.048 2.048 2.048 0 4.096 2.048 6.144 2.048h2.048c2.048 2.048 4.096 2.048 6.144 4.096s4.096 2.048 8.192 4.096c4.096 2.048 10.24 6.144 14.336 8.192l98.304-98.304 129.024 129.024-94.208 100.352c4.096 6.144 6.144 12.288 10.24 16.384 2.048 2.048 2.048 4.096 4.096 8.192zM243.712 426.667c0 135.168 100.352 245.76 229.376 266.24l-90.112-292.864h102.4l-86.016-217.088c-92.16 43.008-155.648 135.168-155.648 243.712zM512 158.379c-34.816 0-69.632 6.144-100.352 20.48l247.808 317.44h-106.496l55.296 182.272c100.352-38.912 174.080-137.216 174.080-251.904-2.048-147.456-122.88-268.288-270.336-268.288z" />
<glyph unicode="&#xe933;" glyph-name="x" d="M1024 758.443l-180.224 180.224-331.776-331.776-331.776 331.776-180.224-180.224 335.872-331.776-335.872-331.776 180.224-180.224 331.776 331.776 331.776-331.776 180.224 180.224-331.776 331.776z" />
<glyph unicode="&#xe934;" glyph-name="v" d="M1024 699.051l-147.456 147.456-542.72-546.816-186.368 188.416-147.456-147.456 333.824-333.824z" />
<glyph unicode="&#xe935;" glyph-name="exclamation" d="M439.4 938.667h145.2c42.4 0 75.2-37 70.2-79l-71-598.8c-4.2-35.6-34.4-62.4-70.2-62.4h-3.2c-35.8 0-66 26.8-70.2 62.4l-71 598.8c-5 42 27.8 79 70.2 79zM489.6 99.667h44.8c39 0 70.8-31.6 70.8-70.8v-44.8c0-39-31.6-70.8-70.8-70.8h-44.8c-39 0-70.8 31.6-70.8 70.8v44.8c0 39.2 31.8 70.8 70.8 70.8z" />
<glyph unicode="&#xe936;" glyph-name="question" d="M464.2-85.333h95.4c25.4 0 46 20.6 46 46v98.2c0 25.4-20.6 46-46 46h-95.4c-25.4 0-46-20.6-46-46v-98.2c0-25.4 20.6-46 46-46zM797.2 758.467c-10.8 34-28.6 64.6-52.6 91.4-24.2 26.8-55.6 48.6-93.4 64.8-37.4 16-82.6 24-134 24-43.6 0-84.4-8.2-121-24.2s-69-39-96-68c-27-29-48.2-63.8-63.6-103.6-15-39.2-23.6-82.8-25.6-129.8v0c-0.8-21 16-38.6 37-38.6h89.8c19.6 0 36 15.4 37 35v0c3 55 18.2 99.4 45 132.2 25 30.2 56.8 45 97.4 45 23 0 42.8-3.4 58.6-10.2s28.4-15.4 38.6-26.4c10.2-11.2 17.6-24 22.4-39.2 5.4-16.4 8-34.4 8-53.2 0-21.6-4-40-12.4-56.4-9.4-18.6-21.8-36.2-36.6-52.6-16.2-17.8-33.8-35.4-52.2-52.2-20.2-18.4-39.4-37.6-57.2-57.2-19.2-21.2-35.4-44.4-47.8-68.8-13.6-26.8-20.6-57-20.6-90v-63.4c0-20.4 16.6-37.2 37.2-37.2h113.4c20.4 0 37.2 16.6 37.2 37.2v58c0 20 3.8 37.8 11.6 54 8.8 18.4 20 36 33.6 52.6 14.4 17.8 30.4 35.4 47.6 52.6 19 19 36.8 39.2 53.2 60.2 17.2 22.2 31.6 46.2 42.8 71.8 12.2 27.6 18.4 58.4 18.4 91.6-0.2 34.2-5.4 68-15.8 100.6z" />
<glyph unicode="&#xe937;" glyph-name="refresh" d="M1024 31.403v303.104l-251.904-8.192 86.016-100.352c-225.28-239.616-563.2-231.424-782.336 26.624l-75.776-98.304c264.192-311.296 669.696-317.44 937.984-22.528l86.016-100.352zM0 821.931v-303.104l251.904 8.192-86.016 100.352c225.28 239.616 563.2 231.424 782.336-26.624l75.776 100.352c-264.192 311.296-669.696 317.44-937.984 20.48l-86.016 100.352z" />
<glyph unicode="&#xe938;" glyph-name="happy" d="M512 938.667c-282.4 0-512-229.6-512-512s229.6-512 512-512c282.4 0 512 229.6 512 512s-229.6 512-512 512zM512 7.667c-231 0-419 188-419 419s188 419 419 419c231 0 419-188 419-419s-188-419-419-419zM428.8 574.267c0-45.95-37.25-83.2-83.2-83.2s-83.2 37.25-83.2 83.2c0 45.95 37.25 83.2 83.2 83.2s83.2-37.25 83.2-83.2zM761.6 574.267c0-45.95-37.25-83.2-83.2-83.2s-83.2 37.25-83.2 83.2c0 45.95 37.25 83.2 83.2 83.2s83.2-37.25 83.2-83.2zM727.8 327.667c-36-88.4-120.6-145.6-215.8-145.6-95 0-179.8 57.2-215.8 145.6v0c-3.2 7.8-10.8 13-19.2 13h-21.4c-14.4 0-24.4-14.4-19.4-27.8v0c42.8-115 153.6-192.2 275.8-192.2s233 77.4 275.6 192.2v0c5 13.4-5 27.8-19.4 27.8h-21.4c-8.4 0-16-5.2-19-13v0z" />
<glyph unicode="&#xe939;" glyph-name="sad" d="M512 938.667c-282.4 0-512-229.6-512-512s229.6-512 512-512c282.4 0 512 229.6 512 512s-229.6 512-512 512zM512 7.667c-231 0-419 188-419 419s188 419 419 419c231 0 419-188 419-419s-188-419-419-419zM428.8 574.267c0-45.95-37.25-83.2-83.2-83.2s-83.2 37.25-83.2 83.2c0 45.95 37.25 83.2 83.2 83.2s83.2-37.25 83.2-83.2zM761.6 574.267c0-45.95-37.25-83.2-83.2-83.2s-83.2 37.25-83.2 83.2c0 45.95 37.25 83.2 83.2 83.2s83.2-37.25 83.2-83.2zM727.8 181.667c-36 88.4-120.6 145.6-215.8 145.6-95 0-179.8-57.2-215.8-145.6v0c-3.2-7.8-10.8-13-19.2-13h-21.4c-14.4 0-24.4 14.4-19.4 27.8v0c42.8 114.8 153.6 192.2 275.8 192.2s233-77.4 275.6-192.2v0c5-13.4-5-27.8-19.4-27.8h-21.4c-8.4 0-16 5-19 13v0z" />
<glyph unicode="&#xe93a;" glyph-name="tongue" d="M512 938.667c-282.4 0-512-229.6-512-512s229.6-512 512-512c282.4 0 512 229.6 512 512s-229.6 512-512 512zM512 7.667c-231 0-419 188-419 419s188 419 419 419c231 0 419-188 419-419s-188-419-419-419zM428.8 574.267c0-45.95-37.25-83.2-83.2-83.2s-83.2 37.25-83.2 83.2c0 45.95 37.25 83.2 83.2 83.2s83.2-37.25 83.2-83.2zM761.6 574.267c0-45.95-37.25-83.2-83.2-83.2s-83.2 37.25-83.2 83.2c0 45.95 37.25 83.2 83.2 83.2s83.2-37.25 83.2-83.2zM727.8 327.667c-36-88.4-120.6-145.6-215.8-145.6-95 0-179.8 57.2-215.8 145.6v0c-3.2 7.8-10.8 13-19.2 13h-21.4c-14.4 0-24.4-14.4-19.4-27.8v0c42.8-115 153.6-192.2 275.8-192.2s233 77.4 275.6 192.2v0c5 13.4-5 27.8-19.4 27.8h-21.4c-8.4 0-16-5.2-19-13v0zM396.8 171.867c0-28.277-22.923-51.2-51.2-51.2s-51.2 22.923-51.2 51.2c0 28.277 22.923 51.2 51.2 51.2s51.2-22.923 51.2-51.2z" />
<glyph unicode="&#xe93b;" glyph-name="lunch" d="M466.944 938.667h-24.576c-14.336 0-26.624-10.24-26.624-22.528v-182.272c0-18.432-20.48-34.816-47.104-34.816v0c-26.624 0-47.104 16.384-47.104 34.816v182.272c-2.048 12.288-14.336 22.528-28.672 22.528h-24.576c-14.336 0-26.624-10.24-26.624-22.528v-182.272c0-18.432-20.48-34.816-47.104-34.816v0c-26.624 0-47.104 16.384-47.104 34.816v182.272c-2.048 12.288-14.336 22.528-28.672 22.528h-24.576c-14.336 0-26.624-10.24-26.624-22.528v-229.376c6.144-67.584 51.2-124.928 114.688-153.6 12.288-6.144 20.48-16.384 20.48-28.672v-555.008c0-18.432 20.48-34.816 47.104-34.816h59.392c26.624 0 47.104 16.384 47.104 34.816v555.008c0 12.288 8.192 22.528 20.48 28.672 63.488 28.672 108.544 86.016 114.688 153.6v229.376c2.048 12.288-10.24 22.528-24.576 22.528zM598.016 307.883c200.704 0 200.704 0 200.704 0v-358.4c0-18.432 22.528-34.816 49.152-34.816h59.392c26.624 0 49.152 16.384 49.152 34.816v989.184c0 0-354.304-176.128-358.4-630.784z" />
<glyph unicode="&#xe93c;" glyph-name="meter" d="M512 938.667c-282.624 0-512-229.376-512-512s229.376-512 512-512 512 229.376 512 512-229.376 512-512 512zM710.656 746.155c34.816 34.816 92.16 34.816 126.976 0s34.816-92.16 0-126.976c-34.816-34.816-92.16-34.816-126.976 0-34.816 32.768-34.816 90.112 0 126.976zM514.048 879.275c49.152 0 90.112-40.96 90.112-90.112s-40.96-90.112-90.112-90.112-90.112 40.96-90.112 90.112 40.96 90.112 90.112 90.112zM145.408 330.411c-49.152 0-90.112 40.96-90.112 90.112s40.96 90.112 90.112 90.112 90.112-40.96 90.112-90.112-40.96-90.112-90.112-90.112zM317.44 94.891c-34.816-34.816-92.16-34.816-126.976 0s-34.816 92.16 0 126.976c34.816 34.816 92.16 34.816 126.976 0s34.816-92.16 0-126.976zM317.44 617.131c-34.816-34.816-92.16-34.816-126.976 0s-34.816 92.16 0 126.976c34.816 34.816 92.16 34.816 126.976 0s34.816-92.16 0-126.976zM514.048-38.229c-49.152 0-90.112 40.96-90.112 90.112s40.96 90.112 90.112 90.112 90.112-40.96 90.112-90.112-40.96-90.112-90.112-90.112zM512 279.211c-53.248 0-98.304 43.008-98.304 98.304 0 30.72 14.336 57.344 36.864 75.776 16.384 75.776 61.44 202.752 61.44 202.752s45.056-126.976 61.44-202.752c22.528-18.432 36.864-45.056 36.864-75.776 0-55.296-45.056-98.304-98.304-98.304zM839.68 94.891c-34.816-34.816-92.16-34.816-126.976 0s-34.816 92.16 0 126.976c34.816 34.816 92.16 34.816 126.976 0s34.816-92.16 0-126.976zM882.688 330.411c-49.152 0-90.112 40.96-90.112 90.112s40.96 90.112 90.112 90.112 90.112-40.96 90.112-90.112-38.912-90.112-90.112-90.112z" />
<glyph unicode="&#xe93d;" glyph-name="metere" d="M604.16 836.267c-225.28 0-409.6-182.272-409.6-409.6s182.272-409.6 409.6-409.6 409.6 182.272 409.6 409.6-184.32 409.6-409.6 409.6zM761.856 680.619c28.672 28.672 73.728 28.672 102.4 0s28.672-73.728 0-102.4c-28.672-28.672-73.728-28.672-102.4 0-26.624 28.672-26.624 73.728 0 102.4zM606.208 789.163c38.912 0 71.68-32.768 71.68-71.68s-32.768-71.68-71.68-71.68-73.728 30.72-73.728 69.632 32.768 73.728 73.728 73.728zM311.296 348.843c-38.912 0-71.68 32.768-71.68 71.68s32.768 71.68 71.68 71.68 71.68-32.768 71.68-71.68-32.768-71.68-71.68-71.68zM448.512 162.475c-28.672-28.672-73.728-28.672-102.4 0s-28.672 73.728 0 102.4c28.672 28.672 73.728 28.672 102.4 0 26.624-28.672 26.624-73.728 0-102.4zM448.512 578.219c-28.672-28.672-73.728-28.672-102.4 0s-28.672 73.728 0 102.4c28.672 28.672 73.728 28.672 102.4 0 26.624-28.672 26.624-73.728 0-102.4zM606.208 53.931c-38.912 0-71.68 32.768-71.68 71.68s32.768 71.68 71.68 71.68 71.68-32.768 71.68-71.68-32.768-71.68-71.68-71.68zM604.16 307.883c-43.008 0-77.824 34.816-77.824 77.824 0 24.576 10.24 47.104 28.672 61.44 12.288 61.44 49.152 161.792 49.152 161.792s36.864-102.4 49.152-161.792c18.432-14.336 28.672-36.864 28.672-61.44 0-43.008-34.816-77.824-77.824-77.824zM864.256 162.475c-28.672-28.672-73.728-28.672-102.4 0s-28.672 73.728 0 102.4c28.672 28.672 73.728 28.672 102.4 0s28.672-73.728 0-102.4zM899.072 348.843c-38.912 0-71.68 32.768-71.68 71.68s32.768 71.68 71.68 71.68c38.912 0 71.68-32.768 71.68-71.68s-30.72-71.68-71.68-71.68zM47.104 420.523c0 0 0 0 0 0v2.048c0 2.048 0 2.048 0 4.096 0 219.136 172.032 397.312 387.072 407.552-8.192 0-14.336 0-22.528 0-225.28 0-409.6-182.272-409.6-409.6s182.272-409.6 409.6-409.6c8.192 0 14.336 0 22.528 0-212.992 14.336-382.976 190.464-387.072 405.504zM145.408 420.523c0 0 0 0 0 0v2.048c0 2.048 0 2.048 0 4.096 0 219.136 169.984 397.312 387.072 407.552-8.192 0-14.336 0-22.528 0-225.28 0-409.6-182.272-409.6-409.6s182.272-409.6 409.6-409.6c8.192 0 14.336 0 22.528 0-215.040 14.336-385.024 190.464-387.072 405.504z" />
<glyph unicode="&#xe93e;" glyph-name="mtask" d="M696.32 840.363h-73.728c-8.192 61.44-53.248 94.208-106.496 94.208s-100.352-30.72-106.496-94.208h-81.92v-122.88h368.64v122.88zM759.808 819.883v-163.84h-495.616v163.84h-143.36v-905.216h782.336v905.216h-143.36zM800.768 244.395h-149.504l108.544-114.688-73.728-77.824-112.64 110.592v-165.888h-102.4v165.888l-108.544-108.544-71.68 75.776 110.592 114.688h-157.696v102.4h157.696l-110.592 106.496 71.68 67.584 108.544-110.592v161.792h102.4v-161.792l110.592 112.64 73.728-69.632-110.592-106.496h149.504v-102.4z" />
<glyph unicode="&#xe93f;" glyph-name="na" d="M854.016 295.595v0 167.936h-208.896v-167.936h-169.984v-210.944h169.984v-167.936h208.896v167.936h169.984v210.944zM716.8 660.139c26.624-40.96 43.008-86.016 49.152-135.168h131.072c-4.096 47.104-14.336 94.208-32.768 137.216-24.576 55.296-55.296 102.4-96.256 143.36-38.912 40.96-88.064 71.68-143.36 96.256s-112.64 34.816-174.080 34.816c-61.44 0-118.784-12.288-174.080-34.816-55.296-24.576-102.4-55.296-143.36-96.256-38.912-40.96-71.68-88.064-96.256-143.36-22.528-55.296-34.816-112.64-34.816-174.080s12.288-118.784 34.816-174.080c24.576-55.296 55.296-104.448 96.256-143.36 38.912-40.96 88.064-71.68 143.36-96.256 45.056-18.432 90.112-30.72 137.216-32.768v131.072c-49.152 6.144-94.208 22.528-137.216 49.152l440.32 438.272zM186.368 314.027c-34.816 53.248-51.2 110.592-51.2 174.080 0 57.344 14.336 110.592 43.008 159.744s67.584 88.064 114.688 116.736c49.152 28.672 102.4 43.008 159.744 43.008 63.488 0 122.88-18.432 174.080-53.248l-440.32-440.32z" />
<glyph unicode="&#xe940;" glyph-name="network" d="M843.776 592.555c-51.2 0-98.304-24.576-129.024-61.44l-374.784 198.656c4.096 14.336 6.144 28.672 6.144 43.008 0 92.16-73.728 165.888-165.888 165.888s-165.888-73.728-165.888-165.888c0-77.824 59.392-143.36 126.976-161.792v-368.64c-67.584-18.432-126.976-83.968-126.976-161.792 0-92.16 75.776-165.888 165.888-165.888s165.888 73.728 165.888 165.888c0 14.336-2.048 26.624-4.096 40.96l378.88 194.56c30.72-32.768 73.728-55.296 122.88-55.296 92.16 0 165.888 73.728 165.888 165.888s-73.728 165.888-165.888 165.888zM307.2 189.099c-22.528 26.624-51.2 47.104-90.112 55.296v366.592c38.912 8.192 65.536 26.624 88.064 53.248l376.832-200.704c-2.048-12.288-4.096-24.576-4.096-36.864 0-16.384 2.048-30.72 6.144-45.056l-376.832-192.512z" />
<glyph unicode="&#xe941;" glyph-name="new" d="M1024 324.267v204.8h-253.952l174.080 178.176-153.6 151.552-176.128-172.032v251.904h-204.8v-251.904l-178.176 174.080-151.552-153.6 172.032-178.176h-251.904v-204.8h251.904l-174.080-176.128 153.6-153.6 178.176 174.080v-253.952h204.8v253.952l176.128-174.080 153.6 153.6-174.080 176.128z" />
<glyph unicode="&#xe942;" glyph-name="nowater" d="M747.52 586.411c-102.4 180.224-235.52 352.256-235.52 352.256s-358.4-466.944-358.4-665.6c0-198.656 159.744-358.4 358.4-358.4s358.4 159.744 358.4 358.4c0 77.824-55.296 196.608-122.88 313.344zM720.896 174.763l-75.776-75.776-133.12 133.12-131.072-133.12-73.728 75.776 133.12 133.12-133.12 131.072 73.728 73.728 133.12-133.12 133.12 133.12 73.728-73.728-133.12-133.12 133.12-131.072z" />
<glyph unicode="&#xe943;" glyph-name="object" d="M1026.048 746.155v0l-4.096 6.144-2.048 2.048v2.048l-335.872 180.224c-2.048 2.048-6.144 2.048-10.24 2.048l-659.456-92.16-2.048-2.048-6.144-2.048h-2.048l-2.048-4.096-4.096-6.144-2.048-2.048v-4.096l-2.048-710.656c0-6.144 4.096-14.336 10.24-16.384l333.824-182.272 10.24-2.048h2.048l659.456 92.16c10.24 2.048 16.384 10.24 16.384 18.432l2.048 710.656-2.048 10.24zM948.224 748.203l-215.040-30.72-380.928-53.248-204.8 112.64-71.68 38.912 595.968 83.968 276.48-151.552zM34.816 795.307l294.912-159.744v-667.648l-294.912 157.696v669.696z" />
<glyph unicode="&#xe944;" glyph-name="on" d="M325.632 567.979c-30.72 0-57.344-12.288-75.776-34.816s-28.672-57.344-28.672-100.352c0-43.008 10.24-75.776 28.672-100.352 18.432-22.528 43.008-34.816 75.776-34.816 30.72 0 57.344 12.288 75.776 34.816s28.672 57.344 28.672 100.352c0 43.008-10.24 75.776-28.672 100.352-20.48 22.528-45.056 34.816-75.776 34.816zM0 682.667v-512h1024v512h-1024zM450.56 275.115c-28.672-30.72-69.632-45.056-124.928-45.056s-96.256 14.336-124.928 45.056c-38.912 36.864-57.344 88.064-57.344 157.696s18.432 122.88 57.344 157.696c28.672 30.72 69.632 45.056 124.928 45.056s96.256-14.336 124.928-45.056c38.912-34.816 57.344-88.064 57.344-157.696 0-67.584-18.432-120.832-57.344-157.696zM878.592 240.299h-81.92l-157.696 272.384v-272.384h-69.632v385.024h81.92l151.552-266.24v266.24h75.776v-385.024z" />
<glyph unicode="&#xe945;" glyph-name="overcon" d="M0 938.667h1024v-129.024h-1024v129.024zM663.552 567.979c-83.968 83.968-202.752 108.544-309.248 75.776l202.752-202.752-200.704-200.704-202.752 202.752c-32.768-106.496-8.192-225.28 75.776-309.248s202.752-108.544 309.248-75.776l143.36-143.36 200.704 200.704-143.36 143.36c32.768 104.448 8.192 225.28-75.776 309.248z" />
<glyph unicode="&#xe946;" glyph-name="overrep" d="M782.336 393.899c2.048 2.048 2.048 4.096 4.096 4.096v2.048c0 2.048 2.048 4.096 2.048 4.096s0 2.048 2.048 2.048c0 2.048 2.048 4.096 2.048 4.096s2.048 2.048 2.048 4.096c0 2.048 2.048 2.048 2.048 4.096s2.048 4.096 2.048 4.096c0 0 0 2.048 2.048 2.048 0 2.048 2.048 4.096 2.048 4.096v2.048c0 2.048 2.048 4.096 2.048 6.144 0 0 0 0 0 2.048s2.048 4.096 2.048 6.144 4.096 10.24 4.096 14.336h112.64v143.36h-110.592c-2.048 6.144-4.096 10.24-4.096 14.336 0 2.048-2.048 4.096-2.048 6.144s-2.048 4.096-2.048 6.144v2.048c0 2.048-2.048 4.096-2.048 4.096s0 2.048-2.048 2.048c0 2.048-2.048 4.096-2.048 4.096 0 2.048-2.048 2.048-2.048 4.096s-2.048 2.048-2.048 4.096c0 2.048-2.048 4.096-2.048 4.096s0 2.048-2.048 2.048c0 2.048-2.048 4.096-2.048 4.096v2.048c-2.048 2.048-2.048 4.096-4.096 4.096-2.048 2.048-2.048 4.096-4.096 6.144-2.048 4.096-4.096 8.192-6.144 12.288l77.824 77.824-102.4 102.4-81.92-75.776c-4.096 6.144-6.144 8.192-12.288 10.24-2.048 2.048-4.096 2.048-6.144 4.096s-4.096 2.048-4.096 4.096h-2.048c-2.048 0-4.096 2.048-4.096 2.048s-2.048 0-2.048 2.048c-2.048 0-4.096 2.048-4.096 2.048-2.048 0-2.048 2.048-4.096 2.048s-2.048 2.048-4.096 2.048c-2.048 0-4.096 2.048-4.096 2.048s-2.048 0-2.048 2.048c-2.048 0-4.096 2.048-4.096 2.048h-2.048c-2.048 0-4.096 2.048-6.144 2.048 0 0 0 0-2.048 0s-4.096 2.048-6.144 2.048c-4.096 4.096-8.192 4.096-14.336 4.096v106.496h-143.36v-112.64c-4.096 0-8.192-2.048-12.288-4.096-2.048 0-4.096-2.048-6.144-2.048s-4.096-2.048-6.144-2.048h-2.048c-2.048 0-4.096-2.048-4.096-2.048s-2.048 0-2.048-2.048c-2.048 0-4.096-2.048-4.096-2.048-2.048 0-2.048-2.048-4.096-2.048s-2.048-2.048-4.096-2.048c-2.048 0-4.096-2.048-4.096-2.048s-2.048 0-2.048-2.048c-2.048 0-4.096-2.048-4.096-2.048h-2.048c-2.048-2.048-4.096-2.048-4.096-4.096-2.048-2.048-4.096-2.048-6.144-4.096-8.192 6.144-12.288 2.048-16.384 2.048l-77.824 77.824-102.4-102.4 75.776-79.872c-4.096-4.096-4.096-8.192-6.144-12.288-2.048-2.048-2.048-4.096-4.096-6.144s-2.048-4.096-4.096-4.096v-2.048c0-2.048-2.048-4.096-2.048-4.096s0-2.048-2.048-2.048c0-2.048-2.048-4.096-2.048-4.096 0-2.048-2.048-2.048-2.048-4.096s-2.048-2.048-2.048-4.096-2.048-4.096-2.048-4.096c0 0 0-2.048-2.048-2.048 0-2.048-2.048-4.096-2.048-4.096v-2.048c0-2.048-2.048-4.096-2.048-6.144 0 0 0 0 0-2.048s-2.048-4.096-2.048-6.144c-4.096-4.096-4.096-8.192-6.144-14.336h-104.448v-143.36h110.592c2.048-4.096 2.048-10.24 4.096-14.336 0-2.048 2.048-4.096 2.048-6.144 0 0 0 0 0-2.048s2.048-4.096 2.048-6.144v-2.048c0-2.048 2.048-4.096 2.048-4.096s0-2.048 2.048-2.048c0-2.048 2.048-4.096 2.048-4.096 0-2.048 2.048-2.048 2.048-4.096s2.048-2.048 2.048-4.096 2.048-4.096 2.048-4.096c0 0 0-2.048 2.048-2.048 0-2.048 2.048-4.096 2.048-4.096v-2.048c2.048-2.048 2.048-4.096 4.096-4.096 2.048-2.048 2.048-4.096 4.096-6.144 2.048-4.096 4.096-8.192 6.144-12.288l-77.824-77.824 102.4-102.4 77.824 77.824c4.096-4.096 8.192-4.096 12.288-6.144 2.048-2.048 4.096-2.048 6.144-4.096s4.096-2.048 4.096-4.096h2.048c2.048 0 4.096-2.048 4.096-2.048s2.048 0 2.048-2.048c2.048 0 4.096-2.048 4.096-2.048 2.048 0 2.048-2.048 4.096-2.048s2.048-2.048 4.096-2.048c2.048 0 4.096-2.048 4.096-2.048s2.048 0 2.048-2.048c2.048 0 4.096-2.048 4.096-2.048h2.048c2.048 0 4.096-2.048 6.144-2.048 0 0 0 0 2.048 0s4.096-2.048 6.144-2.048 10.24-4.096 14.336-4.096v-112.64h143.36v110.592c4.096 2.048 10.24 2.048 14.336 4.096 2.048 0 4.096 2.048 6.144 2.048 0 0 0 0 2.048 0s4.096 2.048 6.144 2.048h2.048c2.048 0 4.096 2.048 4.096 2.048s2.048 0 2.048 2.048c2.048 0 4.096 2.048 4.096 2.048 2.048 0 2.048 2.048 4.096 2.048s2.048 2.048 4.096 2.048c2.048 0 4.096 2.048 4.096 2.048s2.048 0 2.048 2.048c2.048 0 4.096 2.048 4.096 2.048h2.048c2.048 2.048 4.096 2.048 4.096 4.096 2.048 2.048 4.096 2.048 6.144 4.096 4.096 2.048 8.192 4.096 12.288 6.144l77.824-77.824 102.4 102.4-73.728 79.872c4.096 4.096 4.096 10.24 8.192 12.288-4.096-2.048-4.096 0-2.048 2.048zM276.48 533.163c0 120.832 90.112 219.136 206.848 233.472l-73.728-243.712h79.872l-79.872-200.704c-77.824 36.864-133.12 118.784-133.12 210.944zM512 297.643c-36.864 0-69.632 8.192-100.352 22.528l217.088 276.48h-83.968l47.104 157.696c90.112-32.768 155.648-118.784 155.648-221.184 0-129.024-104.448-235.52-235.52-235.52zM0 43.691h1024v-129.024h-1024v129.024z" />
<glyph unicode="&#xe947;" glyph-name="photoc" d="M512 938.667v-219.136l-446.464 217.088-65.536-104.448 352.256-172.032h-352.256v-188.416h1024v466.944zM0 426.667h1024v-278.528h-1024v278.528zM0 101.035h1024v-186.368h-1024v186.368z" />
<glyph unicode="&#xe948;" glyph-name="pickup" d="M733.184 504.491h-59.392c-18.432 0-30.72-14.336-30.72-32.768v-243.712c0-18.432-14.336-30.72-32.768-30.72h-200.704c-18.432 0-32.768 14.336-32.768 30.72v243.712c0 18.432-14.336 32.768-30.72 32.768h-59.392c-26.624 0-40.96 28.672-26.624 51.2l223.232 313.344c6.144 8.192 16.384 14.336 26.624 14.336s20.48-4.096 26.624-14.336l223.232-313.344c14.336-22.528 0-51.2-26.624-51.2zM32.768-27.989h958.464c18.432 0 32.768 14.336 32.768 32.768v532.48c0 18.432-14.336 32.768-32.768 32.768s-32.768-14.336-32.768-32.768v-423.936c0-18.432-14.336-32.768-32.768-32.768h-827.392c-18.432 0-32.768 14.336-32.768 32.768v421.888c0 18.432-14.336 32.768-32.768 32.768s-32.768-14.336-32.768-32.768v-532.48c0-16.384 14.336-30.72 32.768-30.72z" />
<glyph unicode="&#xe949;" glyph-name="pin" d="M798.72 815.787v122.88h-573.44v-122.88h102.4v-325.632c-81.92-40.96-104.448-100.352-104.448-169.984 0-6.144-2.048-18.432 0-18.432h253.952l34.816-378.88 34.816 380.928h253.952c0 0 0 10.24 0 18.432 0 69.632-22.528 126.976-104.448 169.984v323.584h102.4z" />
<glyph unicode="&#xe94a;" glyph-name="preventive" d="M720.896 815.787c-114.688 114.688-280.576 149.504-425.984 102.4l278.528-278.528-274.432-276.48-278.528 280.576c-47.104-145.408-12.288-311.296 102.4-425.984s280.576-149.504 425.984-104.448l198.656-198.656 276.48 276.48-198.656 198.656c47.104 145.408 12.288 309.248-104.448 425.984zM344.064 680.619c0-48.636-39.428-88.064-88.064-88.064s-88.064 39.428-88.064 88.064c0 48.636 39.428 88.064 88.064 88.064s88.064-39.428 88.064-88.064z" />
<glyph unicode="&#xe94b;" glyph-name="printer" d="M989.184 805.547h-202.752v133.12h-548.864v-133.12h-202.752c-18.432 0-34.816-14.336-34.816-34.816v-577.536c0-18.432 16.384-32.768 34.816-32.768h202.752v-245.76h546.816v245.76h202.752c18.432 0 34.816 16.384 34.816 34.816v575.488c2.048 20.48-14.336 34.816-32.768 34.816zM286.72 873.131h450.56v-67.584h-450.56v67.584zM737.28-19.797h-450.56v180.224h450.56v-180.224zM946.176 635.563c0-18.432-16.384-34.816-34.816-34.816h-94.208c-14.336 0-26.624 8.192-32.768 20.48v120.832c6.144 12.288 18.432 20.48 32.768 20.48h94.208c18.432 0 34.816-16.384 34.816-34.816v-92.16z" />
<glyph unicode="&#xe94c;" glyph-name="priore" d="M997.376 451.243l-333.824 331.776-26.624-26.624-124.928-126.976-153.6 153.6-26.624-26.624-307.2-305.152-24.576-26.624 26.624-26.624 333.824-331.776 26.624 26.624 124.928 129.024 153.6-153.6 26.624 26.624 333.824 331.776-28.672 24.576zM331.776 451.243l-26.624-26.624 135.168-135.168-81.92-81.92-217.088 217.088 217.088 215.040 81.92-81.92-108.544-106.496zM512 361.131l-63.488 63.488 63.488 63.488 63.488-63.488-63.488-63.488zM665.6 209.579l-81.92 81.92 135.168 135.168-135.168 135.168 81.92 81.92 217.088-215.040-217.088-219.136zM665.6 729.771l-153.6-151.552v0l153.6 151.552z" />
<glyph unicode="&#xe94d;" glyph-name="priority" d="M1024 31.403v303.104l-251.904-8.192 86.016-100.352c-225.28-239.616-563.2-231.424-782.336 26.624l-75.776-98.304c264.192-311.296 669.696-317.44 937.984-22.528l86.016-100.352zM0 821.931v-303.104l251.904 8.192-86.016 100.352c225.28 239.616 563.2 231.424 782.336-26.624l75.776 100.352c-264.192 311.296-669.696 317.44-937.984 20.48l-86.016 100.352zM661.504 434.859c0-82.569-66.935-149.504-149.504-149.504s-149.504 66.935-149.504 149.504c0 82.569 66.935 149.504 149.504 149.504s149.504-66.935 149.504-149.504z" />
<glyph unicode="&#xe94e;" glyph-name="rec" d="M681.984 846.507h-61.44c-6.144 57.344-51.2 92.16-104.448 92.16s-98.304-34.816-106.496-92.16h-71.68v-122.88h346.112v122.88zM753.664 807.595v-157.696h-487.424v157.696h-143.36v-892.928h778.24v892.928h-147.456zM731.136 191.147c-10.24-20.48-22.528-40.96-38.912-59.392-40.96-45.056-90.112-69.632-149.504-75.776 0 0-2.048 0-2.048 0-12.288 0-24.576 0-36.864 0 0 0-2.048 0-2.048 0-38.912 4.096-75.776 16.384-108.544 38.912-12.288 8.192-22.528 18.432-34.816 26.624 0 0-2.048-2.048-2.048-2.048-20.48-20.48-40.96-40.96-61.44-61.44 0 0-2.048-2.048-2.048-2.048v0c0 61.44 0 118.784 0 180.224 61.44 0 120.832 0 184.32 0-22.528-22.528-45.056-43.008-67.584-65.536 10.24-10.24 22.528-20.48 36.864-26.624 65.536-32.768 141.312-22.528 192.512 28.672 14.336 14.336 26.624 30.72 34.816 51.2 8.192 18.432 28.672 28.672 47.104 18.432 14.336-12.288 18.432-32.768 10.24-51.2zM751.616 336.555v-2.048c-61.44 0-122.88 0-184.32 0 22.528 22.528 45.056 45.056 67.584 67.584-4.096 4.096-8.192 8.192-12.288 12.288-77.824 61.44-198.656 40.96-247.808-55.296-2.048-4.096-4.096-10.24-6.144-14.336-10.24-14.336-28.672-18.432-45.056-10.24s-22.528 26.624-16.384 43.008c10.24 26.624 26.624 49.152 45.056 69.632 36.864 38.912 79.872 61.44 133.12 69.632 6.144 0 10.24-2.048 16.384 4.096 12.288 0 24.576 0 36.864 0 2.048 0 2.048-2.048 4.096-2.048 53.248-6.144 98.304-26.624 137.216-63.488 2.048-2.048 2.048-2.048 4.096-4.096 0 0 2.048 2.048 2.048 2.048 20.48 20.48 40.96 43.008 63.488 63.488 0 0 2.048 0 2.048 4.096h2.048c-2.048-63.488-2.048-122.88-2.048-184.32z" />
<glyph unicode="&#xe94f;" glyph-name="reception" d="M28.672-83.285v0 4.096zM28.672-85.333v2.048zM260.096-83.285h219.136v477.184l-219.136-219.136zM219.136-83.285v217.088l-217.088-217.088zM804.864 719.531v-802.816h219.136v1021.952zM532.48-83.285h219.136v751.616l-219.136-221.184zM69.632 567.979l116.736 116.736 116.736-116.736 67.584 67.584-116.736 116.736 116.736 116.736-67.584 69.632-116.736-116.736-116.736 116.736-69.632-69.632 116.736-116.736-116.736-116.736z" />
<glyph unicode="&#xe950;" glyph-name="rectangle" d="M0 938.667h1024v-1024h-1024v1024z" />
<glyph unicode="&#xe951;" glyph-name="rectangleo" d="M921.6 836.267v-819.2h-819.2v819.2h819.2zM1024 938.667h-1024v-1024h1024v1024z" />
<glyph unicode="&#xe952;" glyph-name="reins" d="M1024-85.333h-1024v544.768c0 0 32.768 83.968 251.904 0s380.928 32.768 577.536 0 196.608 0 196.608 0v-544.768zM0 744.107h1024v-102.4h-1024v102.4z" />
<glyph unicode="&#xe953;" glyph-name="remrec" d="M684.032 846.507h-61.44c-8.192 55.296-53.248 92.16-106.496 92.16s-98.304-36.864-106.496-92.16h-73.728v-120.832h348.16v120.832zM753.664 811.691v-161.792h-487.424v161.792h-143.36v-897.024h778.24v897.024h-147.456zM743.424 119.467l-61.44-61.44-172.032 172.032-172.032-172.032-61.44 61.44 172.032 172.032-172.032 172.032 61.44 61.44 172.032-172.032 172.032 172.032 61.44-61.44-172.032-172.032 172.032-172.032z" />
<glyph unicode="&#xe954;" glyph-name="reshuffle" d="M1024 690.859c0-6.144-2.048-10.24-6.144-12.288l-182.272-182.272c-4.096-4.096-8.192-6.144-12.288-6.144s-10.24 2.048-12.288 6.144c-4.096 4.096-6.144 8.192-6.144 12.288v110.592h-145.408c-18.432 0-34.816-2.048-49.152-8.192s-28.672-14.336-38.912-26.624c-12.288-12.288-20.48-22.528-28.672-34.816s-16.384-26.624-26.624-45.056c-12.288-24.576-26.624-55.296-45.056-98.304-10.24-24.576-20.48-47.104-28.672-63.488s-18.432-36.864-30.72-59.392c-12.288-22.528-24.576-40.96-36.864-57.344-12.288-14.336-26.624-30.72-43.008-47.104s-32.768-28.672-51.2-38.912c-18.432-10.24-38.912-18.432-61.44-24.576s-47.104-10.24-73.728-10.24h-126.976c-6.144 0-10.24 2.048-12.288 6.144-4.096 4.096-6.144 8.192-6.144 14.336v110.592c0 6.144 2.048 10.24 6.144 12.288 4.096 4.096 8.192 6.144 12.288 6.144h126.976c18.432 0 34.816 2.048 49.152 8.192s28.672 14.336 38.912 26.624c12.288 12.288 20.48 22.528 28.672 34.816s16.384 26.624 26.624 45.056c12.288 24.576 26.624 55.296 45.056 98.304 10.24 24.576 20.48 47.104 28.672 63.488s18.432 36.864 30.72 59.392c12.288 22.528 24.576 40.96 36.864 57.344 12.288 14.336 26.624 30.72 43.008 47.104s32.768 28.672 51.2 38.912c18.432 10.24 38.912 18.432 61.44 24.576s47.104 10.24 73.728 10.24h145.408v106.496c0 6.144 2.048 10.24 6.144 12.288 4.096 4.096 8.192 6.144 12.288 6.144s8.192-2.048 14.336-6.144l182.272-182.272c2.048-4.096 4.096-8.192 4.096-14.336zM380.928 635.563c-22.528-34.816-49.152-88.064-77.824-155.648-8.192 16.384-16.384 30.72-20.48 40.96-6.144 10.24-14.336 22.528-22.528 36.864-10.24 14.336-18.432 24.576-28.672 32.768s-22.528 14.336-36.864 20.48c-14.336 6.144-30.72 8.192-47.104 8.192h-129.024c-6.144 0-10.24 2.048-12.288 6.144-4.096 2.048-6.144 6.144-6.144 12.288v108.544c0 6.144 2.048 10.24 6.144 12.288 4.096 4.096 8.192 6.144 12.288 6.144h126.976c96.256 0 174.080-43.008 235.52-129.024zM1024 178.859c0-6.144-2.048-10.24-6.144-12.288l-182.272-182.272c-4.096-4.096-8.192-6.144-12.288-6.144s-10.24 2.048-12.288 6.144-6.144 8.192-6.144 12.288v110.592c-12.288 0-28.672 0-49.152 0s-34.816 0-47.104 0c-10.24 0-24.576 0-40.96 0s-30.72 2.048-40.96 2.048c-10.24 2.048-22.528 4.096-36.864 6.144s-26.624 6.144-36.864 10.24c-10.24 4.096-20.48 10.24-32.768 16.384s-24.576 14.336-32.768 22.528-20.48 18.432-30.72 30.72c-10.24 12.288-22.528 24.576-32.768 38.912 22.528 34.816 49.152 88.064 77.824 155.648 8.192-16.384 16.384-30.72 20.48-40.96 6.144-10.24 14.336-22.528 22.528-36.864 10.24-14.336 18.432-24.576 28.672-32.768s22.528-14.336 36.864-20.48c14.336-6.144 30.72-8.192 47.104-8.192h145.408v110.592c0 6.144 2.048 10.24 6.144 12.288 4.096 4.096 8.192 6.144 12.288 6.144s8.192-2.048 14.336-6.144l182.272-182.272c4.096-2.048 6.144-6.144 6.144-12.288z" />
<glyph unicode="&#xe955;" glyph-name="router" d="M743.424 938.667c-145.408 0-264.192-118.784-264.192-264.192 0-4.096 0-10.24 0-14.336 8.192 139.264 122.88 251.904 264.192 251.904s258.048-110.592 264.192-251.904c0 4.096 0 10.24 0 14.336 0 147.456-118.784 264.192-264.192 264.192zM743.424 780.971c94.208 0 172.032-73.728 178.176-167.936 0 4.096 0 6.144 0 10.24 0 98.304-79.872 178.176-178.176 178.176s-178.176-79.872-178.176-178.176c0-4.096 0-6.144 0-10.24 6.144 94.208 83.968 167.936 178.176 167.936zM874.496-85.333c63.488 0 118.784 40.96 118.784 92.16v131.072c0 51.2-55.296 92.16-118.784 92.16h-12.288zM862.208 230.059h-104.448v303.104c12.288 6.144 28.672 20.48 28.672 38.912 0 22.528-18.432 40.96-40.96 40.96s-38.912-18.432-38.912-40.96c0-18.432 8.192-34.816 32.768-38.912v-303.104h-608.256c-63.488 0-114.688-40.96-114.688-92.16v-131.072c0-51.2 51.2-92.16 114.688-92.16h743.424zM446.464 8.875c-30.72 0-55.296 24.576-55.296 55.296s24.576 55.296 55.296 55.296c30.72 0 55.296-24.576 55.296-55.296s-24.576-55.296-55.296-55.296zM591.872 8.875c-30.72 0-55.296 24.576-55.296 55.296s24.576 55.296 55.296 55.296c30.72 0 55.296-24.576 55.296-55.296s-24.576-55.296-55.296-55.296zM739.328 8.875c-30.72 0-55.296 24.576-55.296 55.296s24.576 55.296 55.296 55.296c30.72 0 55.296-24.576 55.296-55.296s-24.576-55.296-55.296-55.296z" />
<glyph unicode="&#xe956;" glyph-name="routine" d="M77.824 938.667h247.808v-247.808h-247.808v247.808zM77.824 551.595h247.808v-247.808h-247.808v247.808zM77.824 162.475h247.808v-247.808h-247.808v247.808zM835.584 590.507l-180.224-180.224-69.632 69.632-73.728-75.776 124.928-124.928 18.432-16.384 253.952 253.952z" />
<glyph unicode="&#xe957;" glyph-name="safetyins" d="M512 938.667c0 0-194.56-251.904-512-176.128 149.504-395.264-30.72-593.92 512-847.872 542.72 253.952 362.496 452.608 512 847.872-317.44-75.776-512 176.128-512 176.128zM512 33.451c-417.792 196.608-278.528 348.16-393.216 653.312 243.712-59.392 393.216 133.12 393.216 133.12 0-186.368 0-552.96 0-786.432z" />
<glyph unicode="&#xe958;" glyph-name="schedule" d="M987.136 719.531v-731.136c0-20.48-8.192-36.864-22.528-51.2s-30.72-22.528-51.2-22.528h-802.816c-20.48 0-36.864 8.192-51.2 22.528s-22.528 30.72-22.528 51.2v731.136c0 20.48 8.192 36.864 22.528 51.2s30.72 22.528 51.2 22.528h73.728v53.248c0 24.576 8.192 47.104 26.624 65.536 16.384 18.432 38.912 26.624 63.488 26.624h36.864c24.576 0 47.104-8.192 65.536-26.624s26.624-38.912 26.624-65.536v-55.296h219.136v55.296c0 24.576 8.192 47.104 26.624 65.536 16.384 18.432 38.912 26.624 63.488 26.624h36.864c24.576 0 47.104-8.192 65.536-26.624s26.624-38.912 26.624-65.536v-55.296h73.728c20.48 0 36.864-8.192 51.2-22.528 14.336-12.288 20.48-28.672 20.48-49.152zM110.592-11.605h804.864v583.68h-804.864v-583.68zM329.728 682.667v163.84c0 6.144-2.048 10.24-6.144 12.288-4.096 4.096-8.192 6.144-12.288 6.144h-36.864c-6.144 0-10.24-2.048-12.288-6.144-4.096-4.096-6.144-8.192-6.144-12.288v-163.84c0-6.144 2.048-10.24 6.144-12.288 4.096-4.096 8.192-6.144 12.288-6.144h36.864c6.144 0 10.24 2.048 12.288 6.144 4.096 2.048 6.144 6.144 6.144 12.288zM780.288 387.755l-290.816-292.864c-4.096-4.096-8.192-6.144-12.288-6.144s-10.24 2.048-12.288 6.144l-163.84 163.84c-4.096 4.096-6.144 8.192-6.144 12.288s2.048 8.192 6.144 12.288l26.624 26.624c4.096 4.096 8.192 6.144 12.288 6.144s10.24-2.048 12.288-6.144l124.928-124.928 253.952 253.952c4.096 4.096 8.192 6.144 12.288 6.144s8.192-2.048 12.288-6.144l26.624-26.624c4.096-4.096 6.144-8.192 6.144-12.288-2.048-4.096-4.096-8.192-8.192-12.288zM768 682.667v163.84c0 6.144-2.048 10.24-6.144 12.288-4.096 4.096-8.192 6.144-12.288 6.144h-36.864c-6.144 0-10.24-2.048-12.288-6.144-4.096-2.048-6.144-6.144-6.144-12.288v-163.84c0-6.144 2.048-10.24 6.144-12.288 4.096-4.096 8.192-6.144 12.288-6.144h36.864c6.144 0 10.24 2.048 12.288 6.144 4.096 2.048 6.144 6.144 6.144 12.288z" />
<glyph unicode="&#xe959;" glyph-name="schedup" d="M765.952 715.435c43.008-47.104 81.92-90.112 122.88-135.168 43.008-49.152 88.064-96.256 131.072-145.408 4.096-4.096 4.096-10.24 2.048-14.336-83.968-92.16-167.936-186.368-251.904-278.528 0 0-2.048-2.048-4.096-2.048-2.048 2.048-6.144 4.096-8.192 6.144-81.92 90.112-165.888 182.272-247.808 272.384-4.096 4.096-4.096 10.24 0 14.336 81.92 92.16 165.888 184.32 249.856 274.432 0 4.096 2.048 6.144 6.144 8.192zM258.048 715.435c4.096-6.144 10.24-10.24 12.288-14.336 28.672-30.72 57.344-63.488 86.016-94.208 6.144-6.144 6.144-12.288 0-18.432-47.104-51.2-92.16-102.4-139.264-153.6-6.144-6.144-6.144-12.288 0-18.432 47.104-51.2 92.16-102.4 139.264-153.6 6.144-6.144 6.144-12.288 0-18.432-32.768-34.816-65.536-71.68-98.304-108.544-4.096 4.096-6.144 6.144-8.192 8.192-81.92 90.112-165.888 182.272-247.808 272.384-4.096 4.096-4.096 10.24-2.048 14.336 83.968 92.16 167.936 186.368 251.904 278.528 2.048 2.048 4.096 4.096 6.144 6.144zM522.24 715.435c32.768-34.816 63.488-69.632 92.16-102.4 2.048-4.096 0-8.192-4.096-12.288-49.152-55.296-98.304-108.544-147.456-163.84-6.144-8.192-6.144-12.288 0-20.48 49.152-53.248 98.304-108.544 147.456-161.792 6.144-6.144 6.144-12.288 0-18.432-30.72-32.768-59.392-65.536-90.112-98.304-6.144 8.192-12.288 14.336-18.432 20.48-77.824 86.016-157.696 174.080-235.52 260.096-4.096 4.096-8.192 8.192-2.048 14.336 83.968 92.16 167.936 184.32 251.904 278.528 2.048 0 2.048 2.048 6.144 4.096z" />
<glyph unicode="&#xe95a;" glyph-name="server" d="M993.28 686.763c16.384 0 30.72 14.336 30.72 30.72v190.464c0 16.384-14.336 30.72-30.72 30.72h-962.56c-16.384 0-30.72-14.336-30.72-30.72v-190.464c0-16.384 14.336-30.72 30.72-30.72h417.792c16.384 0 30.72-14.336 30.72-30.72v-73.728c0-16.384-14.336-30.72-30.72-30.72h-417.792c-16.384 0-30.72-14.336-30.72-30.72v-190.464c0-16.384 14.336-30.72 30.72-30.72h417.792c16.384 0 30.72-14.336 30.72-30.72v-73.728c0-16.384-14.336-30.72-30.72-30.72h-417.792c-16.384 0-30.72-14.336-30.72-30.72v-190.464c0-14.336 14.336-28.672 30.72-28.672h962.56c16.384 0 30.72 14.336 30.72 30.72v190.464c0 16.384-14.336 30.72-30.72 30.72h-417.792c-16.384 0-30.72 14.336-30.72 30.72v73.728c0 16.384 14.336 30.72 30.72 30.72h417.792c16.384 0 30.72 14.336 30.72 30.72v190.464c0 16.384-14.336 30.72-30.72 30.72h-417.792c-16.384 0-30.72 14.336-30.72 30.72v73.728c0 16.384 14.336 30.72 30.72 30.72h417.792zM782.336-1.365c-43.008 77.824 40.96 161.792 118.784 118.784 14.336-8.192 24.576-18.432 32.768-32.768 43.008-77.824-40.96-161.792-118.784-118.784-14.336 6.144-24.576 18.432-32.768 32.768zM665.6 17.067c0-16.384-14.336-30.72-30.72-30.72h-512c-16.384 0-30.72 14.336-30.72 30.72v47.104c0 16.384 14.336 30.72 30.72 30.72h512c16.384 0 30.72-14.336 30.72-30.72v-47.104zM782.336 383.659c-43.008 77.824 40.96 161.792 118.784 118.784 14.336-8.192 24.576-18.432 32.768-32.768 43.008-77.824-40.96-161.792-118.784-118.784-14.336 8.192-24.576 20.48-32.768 32.768zM665.6 404.139c0-16.384-14.336-30.72-30.72-30.72h-512c-16.384 0-30.72 14.336-30.72 30.72v47.104c0 16.384 14.336 30.72 30.72 30.72h512c16.384 0 30.72-14.336 30.72-30.72v-47.104zM782.336 770.731c-43.008 77.824 40.96 161.792 118.784 118.784 14.336-8.192 24.576-18.432 32.768-32.768 43.008-77.824-40.96-161.792-118.784-118.784-14.336 8.192-24.576 18.432-32.768 32.768zM92.16 836.267c0 16.384 14.336 30.72 30.72 30.72h512c16.384 0 30.72-14.336 30.72-30.72v-47.104c0-16.384-14.336-30.72-30.72-30.72h-512c-16.384 0-30.72 14.336-30.72 30.72v47.104z" />
<glyph unicode="&#xe95b;" glyph-name="sewer" d="M512 938.667c-282.624 0-512-229.376-512-512s229.376-512 512-512 512 229.376 512 512c0 282.624-229.376 512-512 512zM776.192 817.835l131.072-131.072c26.624-38.912 47.104-83.968 61.44-131.072l-323.584 323.584c47.104-14.336 92.16-34.816 131.072-61.44zM73.728 268.971l284.672-284.672c-133.12 47.104-237.568 151.552-284.672 284.672zM432.128-36.181l-378.88 378.88c-4.096 24.576-6.144 51.2-8.192 77.824l466.944-464.896c-26.624 2.048-53.248 4.096-79.872 8.192zM563.2-42.325l-514.048 516.096c2.048 20.48 6.144 40.96 10.24 61.44l565.248-565.248c-20.48-6.144-40.96-10.24-61.44-12.288zM667.648-19.797l-595.968 595.968c6.144 16.384 12.288 34.816 20.48 51.2l624.64-626.688c-16.384-8.192-32.768-14.336-49.152-20.48zM753.664 19.115l-643.072 643.072c8.192 14.336 18.432 28.672 28.672 43.008l657.408-657.408c-14.336-10.24-28.672-18.432-43.008-28.672zM825.344 72.363l-663.552 663.552c12.288 12.288 22.528 24.576 34.816 34.816l665.6-665.6c-12.288-10.24-24.576-22.528-36.864-32.768zM886.784 135.851l-659.456 661.504c12.288 10.24 26.624 20.48 40.96 28.672l647.168-647.168c-8.192-14.336-18.432-28.672-28.672-43.008zM935.936 213.675l-632.832 632.832c16.384 8.192 32.768 14.336 49.152 22.528l604.16-606.208c-6.144-18.432-12.288-34.816-20.48-49.152zM970.752 303.787l-577.536 577.536c18.432 6.144 38.912 8.192 59.392 12.288l530.432-532.48c-4.096-18.432-8.192-38.912-12.288-57.344zM501.76 897.707c4.096 0 10.24 0 14.336 0 20.48 0 40.96-2.048 59.392-4.096l407.552-407.552c2.048-20.48 4.096-38.912 4.096-59.392 0-4.096 0-10.24 0-14.336l-485.376 485.376z" />
<glyph unicode="&#xe95c;" glyph-name="showr" d="M364.544 340.651c-14.336-16.384-16.384-32.768-8.192-51.2 2.048-6.144 8.192-12.288 8.192-12.288s6.144-6.144 12.288-8.192c18.432-10.24 36.864-6.144 51.2 8.192 24.576 20.48 47.104 43.008 69.632 65.536 59.392 59.392 118.784 118.784 178.176 178.176 18.432 18.432 22.528 38.912 12.288 59.392-2.048 6.144-8.192 12.288-8.192 12.288s-6.144 6.144-12.288 8.192c-20.48 10.24-43.008 4.096-59.392-12.288-59.392-59.392-118.784-118.784-178.176-178.176-22.528-24.576-45.056-47.104-65.536-69.632zM874.496 885.419c-38.912 38.912-83.968 59.392-141.312 49.152-30.72-6.144-55.296-18.432-75.776-38.912-49.152-45.056-94.208-94.208-143.36-139.264-40.96-38.912-59.392-86.016-47.104-143.36 6.144-24.576 16.384-45.056 30.72-63.488 6.144-8.192 12.288-8.192 18.432 0 16.384 16.384 34.816 34.816 53.248 51.2 12.288 10.24 22.528 18.432 18.432 40.96-4.096 18.432 8.192 36.864 20.48 51.2 32.768 32.768 67.584 65.536 102.4 98.304 26.624 24.576 73.728 26.624 100.352 0 12.288-12.288 18.432-18.432 32.768-32.768s22.528-22.528 32.768-32.768c26.624-26.624 26.624-73.728 0-100.352-32.768-34.816-65.536-67.584-98.304-102.4-14.336-14.336-32.768-24.576-51.2-20.48-20.48 4.096-28.672-8.192-40.96-18.432-16.384-18.432-32.768-34.816-51.2-53.248-8.192-8.192-8.192-12.288 0-18.432 18.432-14.336 38.912-26.624 63.488-30.72 57.344-12.288 104.448 6.144 143.36 47.104 47.104 47.104 94.208 94.208 139.264 143.36 20.48 20.48 32.768 47.104 38.912 75.776 10.24 57.344-8.192 102.4-49.152 141.312-16.384 16.384-34.816 34.816-49.152 51.2-12.288 10.24-28.672 28.672-47.104 45.056zM536.576 318.123c-22.528-22.528-45.056-45.056-67.584-67.584-4.096-4.096-8.192-8.192-12.288-14.336-2.048-2.048-4.096-4.096-2.048-6.144 10.24-36.864-10.24-63.488-32.768-86.016-24.576-26.624-49.152-51.2-73.728-77.824-28.672-30.72-77.824-30.72-108.544 0-14.336 14.336-26.624 26.624-40.96 40.96s-26.624 26.624-40.96 40.96c-30.72 30.72-30.72 79.872 0 108.544 26.624 24.576 51.2 49.152 77.824 73.728 24.576 22.528 49.152 43.008 86.016 32.768 2.048 0 4.096 2.048 6.144 2.048 4.096 4.096 10.24 8.192 14.336 12.288 22.528 22.528 45.056 45.056 67.584 67.584 0 2.048 0 2.048-2.048 4.096 0 2.048-2.048 2.048-4.096 4.096-38.912 30.72-79.872 45.056-129.024 36.864-32.768-6.144-59.392-20.48-83.968-43.008-47.104-45.056-94.208-92.16-141.312-137.216-26.624-26.624-43.008-59.392-45.056-96.256-4.096-40.96 8.192-77.824 36.864-106.496 26.624-26.624 49.152-49.152 77.824-77.824s51.2-51.2 77.824-77.824c30.72-28.672 65.536-38.912 106.496-36.864 36.864 2.048 69.632 18.432 96.256 45.056 45.056 47.104 92.16 94.208 137.216 141.312 22.528 22.528 36.864 51.2 43.008 83.968 10.24 49.152-4.096 92.16-36.864 129.024 0 2.048-2.048 2.048-4.096 4.096 2.048 0 0 0-2.048 0z" />
<glyph unicode="&#xe95d;" glyph-name="shutnon" d="M512 938.667c0 0-358.4-466.944-358.4-665.6s159.744-358.4 358.4-358.4 358.4 159.744 358.4 358.4c0 198.656-358.4 665.6-358.4 665.6zM663.552 125.611c-28.672-30.72-69.632-49.152-110.592-57.344v-73.728c0-4.096 2.048-8.192-2.048-12.288-2.048-2.048-2.048-6.144-6.144-6.144h-57.344c-4.096 0-10.24 2.048-14.336 6.144-2.048 2.048-8.192 8.192-8.192 10.24v73.728c-20.48 2.048-32.768 6.144-49.152 12.288s-28.672 12.288-40.96 18.432c-10.24 6.144-20.48 12.288-30.72 20.48-10.24 6.144-16.384 12.288-18.432 16.384-4.096 4.096-6.144 6.144-6.144 8.192-4.096 6.144-4.096 12.288 0 16.384l43.008 57.344c2.048 2.048 6.144 4.096 10.24 4.096s8.192 0 10.24-4.096v0c30.72-28.672 65.536-45.056 102.4-53.248 10.24-2.048 20.48-4.096 30.72-4.096 22.528 0 43.008 6.144 59.392 18.432s26.624 28.672 26.624 51.2c0 8.192-2.048 14.336-6.144 22.528-4.096 6.144-8.192 12.288-14.336 18.432-6.144 4.096-14.336 10.24-24.576 16.384s-20.48 10.24-28.672 14.336c-8.192 4.096-18.432 8.192-32.768 14.336-10.24 4.096-20.48 8.192-26.624 10.24s-14.336 6.144-26.624 10.24c-10.24 4.096-20.48 10.24-26.624 12.288-6.144 4.096-14.336 8.192-24.576 14.336s-16.384 12.288-22.528 18.432c-6.144 6.144-12.288 12.288-18.432 20.48s-12.288 16.384-14.336 24.576c-4.096 8.192-6.144 18.432-8.192 28.672s-4.096 20.48-4.096 32.768c0 38.912 10.24 71.68 36.864 102.4 26.624 28.672 57.344 47.104 102.4 55.296v75.776c0 4.096 6.144 6.144 8.192 10.24 2.048 2.048 10.24 4.096 14.336 4.096h57.344c4.096 0 4.096-2.048 6.144-4.096s2.048-6.144 2.048-10.24v-73.728c12.288-2.048 34.816-4.096 49.152-10.24 14.336-4.096 28.672-10.24 36.864-14.336 10.24-4.096 18.432-10.24 26.624-16.384s14.336-10.24 16.384-12.288c2.048-2.048 4.096-4.096 6.144-6.144 4.096-4.096 6.144-10.24 2.048-16.384l-34.816-61.44c-2.048-4.096-6.144-6.144-10.24-6.144s-8.192 0-12.288 2.048c0 0-2.048 2.048-6.144 4.096s-8.192 6.144-16.384 10.24c-8.192 4.096-16.384 10.24-24.576 14.336s-18.432 8.192-30.72 10.24c-12.288 4.096-24.576 4.096-36.864 4.096-26.624 0-49.152-6.144-65.536-18.432s-24.576-26.624-24.576-47.104c0-8.192 2.048-14.336 4.096-20.48s6.144-12.288 12.288-16.384c6.144-6.144 12.288-10.24 16.384-14.336 6.144-4.096 12.288-8.192 22.528-12.288s18.432-8.192 24.576-12.288c6.144-2.048 16.384-6.144 28.672-12.288 14.336-6.144 26.624-10.24 34.816-12.288 8.192-4.096 18.432-8.192 32.768-14.336s24.576-12.288 30.72-18.432c8.192-6.144 16.384-12.288 26.624-20.48s16.384-18.432 22.528-26.624c6.144-8.192 10.24-20.48 12.288-32.768 4.096-12.288 4.096-24.576 4.096-38.912 8.192-36.864-8.192-73.728-34.816-104.448z" />
<glyph unicode="&#xe95e;" glyph-name="smok" d="M647.168 426.667c0-74.651-60.517-135.168-135.168-135.168s-135.168 60.517-135.168 135.168c0 74.651 60.517 135.168 135.168 135.168s135.168-60.517 135.168-135.168zM636.495 113.187l189.706 189.706 59.374-59.374-189.706-189.706-59.374 59.374zM774.448-24.297l189.706 189.706 59.374-59.374-189.706-189.706-59.374 59.374zM-0.99 748.747l189.706 189.706 59.374-59.374-189.706-189.706-59.374 59.374zM138.41 609.815l189.706 189.706 59.374-59.374-189.706-189.706-59.374 59.374zM0.21 103.398l59.374 59.374 189.706-189.706-59.374-59.374-189.706 189.706zM139.142 242.796l59.374 59.374 189.706-189.706-59.374-59.374-189.706 189.706zM635.77 740.883l59.374 59.374 189.706-189.706-59.374-59.374-189.706 189.706zM773.254 878.833l59.374 59.374 189.706-189.706-59.374-59.374-189.706 189.706z" />
<glyph unicode="&#xe95f;" glyph-name="solar" d="M1024 938.667h-778.24l-245.76-686.080h423.936v-337.92h110.592v337.92h243.712l245.76 686.080zM88.064 316.075l200.704 561.152h647.168l-200.704-561.152h-647.168zM323.584 840.363l-79.872-219.136h219.136l77.824 219.136zM647.168 840.363l-77.824-219.136h219.136l77.824 219.136zM479.232 367.275h217.088l79.872 219.136h-219.136zM153.6 367.275h219.136l77.824 219.136h-219.136z" />
<glyph unicode="&#xe960;" glyph-name="switch" d="M0 938.667v-286.72h1024v286.72h-1024zM245.76 692.907h-184.32v184.32h184.32v-184.32zM0 283.307h1024v307.2h-1024v-307.2zM61.44 395.947v133.12h184.32v-184.32h-184.32v51.2zM0-85.333h1024v307.2h-1024v-307.2zM61.44 21.163v139.264h184.32v-184.32h-184.32v45.056z" />
<glyph unicode="&#xe961;" glyph-name="task" d="M684.032 846.507h-61.44c-8.192 57.344-53.248 92.16-104.448 92.16s-98.304-36.864-106.496-92.16h-73.728v-122.88h348.16v122.88h-2.048zM757.76 815.787v-163.84h-491.52v163.84h-143.36v-901.12h778.24v901.12h-143.36zM696.32 180.907h-368.64v81.92h368.64v-81.92zM696.32 324.267h-368.64v81.92h368.64v-81.92zM696.32 467.627h-368.64v61.44h368.64v-61.44z" />
<glyph unicode="&#xe962;" glyph-name="threedots" d="M397.312 938.667h229.376v-229.376h-229.376v229.376zM397.312 541.355h229.376v-229.376h-229.376v229.376zM397.312 144.043h229.376v-229.376h-229.376v229.376z" />
<glyph unicode="&#xe963;" glyph-name="ticket" d="M440.32 938.667h-440.32v-440.32l583.68-583.68 440.32 440.32-583.68 583.68zM260.096 678.571c-38.912-38.912-100.352-38.912-137.216 0-38.912 38.912-38.912 100.352 0 137.216s100.352 38.912 137.216 0c36.864-36.864 36.864-98.304 0-137.216z" />
<glyph unicode="&#xe964;" glyph-name="toggleoffo" d="M800.768 643.755h-577.536c-122.88 0-223.232-98.304-223.232-217.088s100.352-217.088 223.232-217.088h577.536c122.88 0 223.232 98.304 223.232 217.088s-100.352 217.088-223.232 217.088zM221.184 234.155c-108.544 0-196.608 86.016-196.608 192.512s88.064 192.512 196.608 192.512 196.608-86.016 196.608-192.512-88.064-192.512-196.608-192.512zM800.768 230.059h-491.52c77.824 32.768 133.12 108.544 133.12 196.608s-55.296 163.84-133.12 196.608h491.52c112.64 0 202.752-88.064 202.752-196.608s-90.112-196.608-202.752-196.608z" />
<glyph unicode="&#xe965;" glyph-name="toggleoffreco" d="M1003.52 623.275v-393.216h-983.040v393.216h983.040zM1024 643.755h-1024v-434.176h1024v434.176zM385.024 565.931v-276.48h-276.48v276.48h276.48zM405.504 586.411h-317.44v-317.44h317.44v317.44z" />
<glyph unicode="&#xe966;" glyph-name="toggleon" d="M806.912 643.755h-589.824c-118.784 0-217.088-98.304-217.088-217.088s98.304-217.088 217.088-217.088h589.824c118.784 0 217.088 98.304 217.088 217.088s-98.304 217.088-217.088 217.088zM770.048 248.491c-98.304 0-178.176 79.872-178.176 178.176s79.872 178.176 178.176 178.176c98.304 0 178.176-79.872 178.176-178.176s-79.872-178.176-178.176-178.176z" />
<glyph unicode="&#xe967;" glyph-name="toggleonrec" d="M0 643.755v-434.176h1024v434.176h-1024zM935.936 266.923h-317.44v319.488h317.44v-319.488z" />
<glyph unicode="&#xe968;" glyph-name="lunch_over" d="M739.328 299.691c-20.48 2.048-40.96 6.144-59.392 14.336-16.384 6.144-30.72 2.048-38.912-6.144l-92.16-92.16 290.816-294.912c16.384-16.384 49.152-12.288 73.728 12.288l53.248 53.248c24.576 24.576 28.672 57.344 12.288 73.728l-239.616 239.616zM393.216 553.643c8.192 8.192 12.288 24.576 6.144 38.912-8.192 20.48-12.288 38.912-14.336 59.392l-282.624 284.672c0 0-98.304-292.864 57.344-614.4l233.472 231.424zM1013.76 629.419l-20.48 20.48c-12.288 12.288-28.672 12.288-38.912 2.048l-145.408-145.408c-14.336-14.336-45.056-10.24-65.536 10.24v0c-20.48 20.48-26.624 51.2-10.24 65.536l145.408 145.408c10.24 10.24 10.24 28.672-2.048 38.912l-20.48 20.48c-12.288 12.288-28.672 12.288-38.912 2.048l-145.408-145.408c-14.336-14.336-45.056-10.24-65.536 10.24v0c-20.48 20.48-26.624 51.2-10.24 65.536l145.408 145.408c10.24 10.24 10.24 28.672-2.048 38.912l-20.48 20.48c-12.288 12.288-28.672 12.288-38.912 2.048l-182.272-182.272-6.144 2.048c-49.152-57.344-59.392-139.264-30.72-215.040 6.144-16.384 2.048-30.72-6.144-38.912l-446.464-444.416c-14.336-14.336-10.24-45.056 10.24-65.536l49.152-47.104c20.48-20.48 51.2-26.624 65.536-10.24l446.464 446.464c8.192 8.192 24.576 12.288 38.912 6.144 75.776-28.672 157.696-18.432 215.040 30.72l4.096 2.048 182.272 182.272c8.192 8.192 6.144 26.624-6.144 36.864z" />
<glyph unicode="&#xe969;" glyph-name="daily" d="M227.328 897.707h153.6v-36.864h-153.6v36.864zM813.056 821.931v-133.12 249.856h-192.512v-116.736h-217.088v-133.12 249.856h-192.512v-116.736h-210.944v-915.456h1024v915.456h-210.944zM661.504 860.843h110.592v-131.072h-110.592v131.072zM251.904 897.707h110.592v-167.936h-110.592v167.936zM284.672-3.413h-192.512v194.56h192.512v-194.56zM284.672 213.675h-192.512v194.56h192.512v-194.56zM284.672 430.763h-192.512v194.56h192.512v-194.56zM499.712-3.413h-192.512v194.56h192.512v-194.56zM499.712 213.675h-192.512v194.56h192.512v-194.56zM499.712 430.763h-192.512v194.56h192.512v-194.56zM716.8-3.413h-192.512v194.56h192.512v-194.56zM716.8 240.299v0-26.624h-192.512v194.56h192.512v-167.936zM716.8 430.763h-192.512v194.56h192.512v-194.56zM931.84-3.413h-192.512v194.56h192.512v-194.56zM931.84 213.675h-192.512v194.56h192.512v-194.56zM931.84 430.763h-192.512v194.56h192.512v-194.56zM475.136 363.179l-18.432 18.432-51.2-51.2-53.248 51.2-18.432-18.432 51.2-51.2-51.2-53.248 18.432-18.432 53.248 51.2 51.2-51.2 18.432 18.432-51.2 53.248z" />
<glyph unicode="&#xe96a;" glyph-name="tv" d="M184.32 37.547h655.36v-53.248h-655.36v53.248zM0 869.035v-778.24h1024v778.24h-1024zM880.64 213.675h-737.28v532.48h737.28v-532.48z" />
<glyph unicode="&#xe96b;" glyph-name="undergrep" d="M782.336 180.907c2.048 2.048 2.048 4.096 4.096 4.096v2.048c0 2.048 2.048 4.096 2.048 4.096s0 2.048 2.048 2.048c0 2.048 2.048 4.096 2.048 4.096s2.048 2.048 2.048 4.096c0 2.048 2.048 2.048 2.048 4.096s2.048 4.096 2.048 4.096c0 0 0 2.048 2.048 2.048 0 2.048 2.048 4.096 2.048 4.096v2.048c0 2.048 2.048 4.096 2.048 6.144 0 0 0 0 0 2.048s2.048 4.096 2.048 6.144 4.096 10.24 4.096 14.336h112.64v143.36h-110.592c-2.048 6.144-4.096 10.24-4.096 14.336 0 2.048-2.048 4.096-2.048 6.144s-2.048 4.096-2.048 6.144v2.048c0 2.048-2.048 4.096-2.048 4.096s0 2.048-2.048 2.048c0 2.048-2.048 4.096-2.048 4.096 0 2.048-2.048 2.048-2.048 4.096s-2.048 2.048-2.048 4.096c0 2.048-2.048 4.096-2.048 4.096s0 2.048-2.048 2.048c0 2.048-2.048 4.096-2.048 4.096v2.048c-2.048 2.048-2.048 4.096-4.096 4.096-2.048 2.048-2.048 4.096-4.096 6.144-2.048 4.096-4.096 8.192-6.144 12.288l77.824 77.824-102.4 102.4-81.92-75.776c-4.096 4.096-8.192 4.096-12.288 6.144-2.048 2.048-4.096 2.048-6.144 4.096s-4.096 2.048-4.096 4.096h-2.048c-2.048 0-4.096 2.048-4.096 2.048s-2.048 0-2.048 2.048c-2.048 0-4.096 2.048-4.096 2.048-2.048 0-2.048 2.048-4.096 2.048s-2.048 2.048-4.096 2.048c-2.048 0-4.096 2.048-4.096 2.048s-2.048 0-2.048 2.048c-2.048 0-4.096 2.048-4.096 2.048h-2.048c-2.048 0-4.096 2.048-6.144 2.048 0 0 0 0-2.048 0s-4.096 2.048-6.144 2.048c-4.096 4.096-8.192 4.096-14.336 4.096v112.64h-143.36v-112.64c-4.096 0-8.192-2.048-12.288-4.096-2.048 0-4.096-2.048-6.144-2.048s-4.096-2.048-6.144-2.048h-2.048c-2.048 0-4.096-2.048-4.096-2.048s-2.048 0-2.048-2.048c-2.048 0-4.096-2.048-4.096-2.048-2.048 0-2.048-2.048-4.096-2.048s-2.048-2.048-4.096-2.048c-2.048 0-4.096-2.048-4.096-2.048s-2.048 0-2.048-2.048c-2.048 0-4.096-2.048-4.096-2.048h-2.048c-2.048-2.048-4.096-2.048-4.096-4.096-2.048-2.048-4.096-2.048-6.144-4.096-4.096-2.048-8.192-4.096-12.288-6.144l-77.824 77.824-102.4-102.4 75.776-79.872c-4.096-4.096-4.096-8.192-6.144-12.288-2.048-2.048-2.048-4.096-4.096-6.144s-2.048-4.096-4.096-4.096v-2.048c0-2.048-2.048-4.096-2.048-4.096s0-2.048-2.048-2.048c0-2.048-2.048-4.096-2.048-4.096 0-2.048-2.048-2.048-2.048-4.096s-2.048-2.048-2.048-4.096-2.048-4.096-2.048-4.096c0 0 0-2.048-2.048-2.048 0-2.048-2.048-4.096-2.048-4.096v-2.048c0-2.048-2.048-4.096-2.048-6.144 0 0 0 0 0-2.048s-2.048-4.096-2.048-6.144c-4.096-4.096-4.096-8.192-6.144-14.336h-108.544v-143.36h110.592c2.048-4.096 2.048-10.24 4.096-14.336 0-2.048 2.048-4.096 2.048-6.144 0 0 0 0 0-2.048s2.048-4.096 2.048-6.144v-2.048c0-2.048 2.048-4.096 2.048-4.096s0-2.048 2.048-2.048c0-2.048 2.048-4.096 2.048-4.096 0-2.048 2.048-2.048 2.048-4.096s2.048-2.048 2.048-4.096 2.048-4.096 2.048-4.096c0 0 0-2.048 2.048-2.048 0-2.048 2.048-4.096 2.048-4.096v-2.048c2.048-2.048 2.048-4.096 4.096-4.096 2.048-2.048 2.048-4.096 4.096-6.144 2.048-4.096 4.096-8.192 6.144-12.288l-77.824-77.824 102.4-102.4 77.824 77.824c4.096-4.096 8.192-4.096 12.288-6.144 2.048-2.048 4.096-2.048 6.144-4.096s4.096-2.048 4.096-4.096h2.048c2.048 0 4.096-2.048 4.096-2.048s2.048 0 2.048-2.048c2.048 0 4.096-2.048 4.096-2.048 2.048 0 2.048-2.048 4.096-2.048s2.048-2.048 4.096-2.048c2.048 0 4.096-2.048 4.096-2.048s2.048 0 2.048-2.048c2.048 0 4.096-2.048 4.096-2.048h2.048c2.048 0 4.096-2.048 6.144-2.048 0 0 0 0 2.048 0s4.096-2.048 6.144-2.048 10.24-4.096 14.336-4.096v-104.448h143.36v110.592c4.096 2.048 10.24 2.048 14.336 4.096 2.048 0 4.096 2.048 6.144 2.048 0 0 0 0 2.048 0s4.096 2.048 6.144 2.048h2.048c2.048 0 4.096 2.048 4.096 2.048s2.048 0 2.048 2.048c2.048 0 4.096 2.048 4.096 2.048 2.048 0 2.048 2.048 4.096 2.048s2.048 2.048 4.096 2.048c2.048 0 4.096 2.048 4.096 2.048s2.048 0 2.048 2.048c2.048 0 4.096 2.048 4.096 2.048h2.048c2.048 2.048 4.096 2.048 4.096 4.096 2.048 2.048 4.096 2.048 6.144 4.096 4.096 2.048 8.192 4.096 12.288 6.144l77.824-77.824 102.4 102.4-77.824 71.68c4.096 4.096 4.096 10.24 8.192 12.288 0 2.048 0 4.096 2.048 8.192zM276.48 320.171c0 120.832 90.112 219.136 206.848 233.472l-73.728-243.712h79.872l-79.872-202.752c-77.824 38.912-133.12 118.784-133.12 212.992zM512 84.651c-36.864 0-69.632 8.192-100.352 22.528l217.088 276.48h-83.968l47.104 157.696c90.112-32.768 155.648-118.784 155.648-221.184 0-131.072-104.448-235.52-235.52-235.52zM0 938.667h1024v-129.024h-1024v129.024z" />
<glyph unicode="&#xe96c;" glyph-name="unschedule" d="M987.136 719.531v-731.136c0-20.48-8.192-36.864-22.528-51.2s-30.72-22.528-51.2-22.528h-802.816c-20.48 0-36.864 8.192-51.2 22.528s-22.528 30.72-22.528 51.2v731.136c0 20.48 8.192 36.864 22.528 51.2s30.72 22.528 51.2 22.528h73.728v53.248c0 24.576 8.192 47.104 26.624 65.536 16.384 18.432 38.912 26.624 63.488 26.624h36.864c24.576 0 47.104-8.192 65.536-26.624s26.624-38.912 26.624-65.536v-55.296h219.136v55.296c0 24.576 8.192 47.104 26.624 65.536 16.384 18.432 38.912 26.624 63.488 26.624h36.864c24.576 0 47.104-8.192 65.536-26.624s26.624-38.912 26.624-65.536v-55.296h73.728c20.48 0 36.864-8.192 51.2-22.528 14.336-12.288 20.48-28.672 20.48-49.152zM110.592-11.605h804.864v583.68h-804.864v-583.68zM329.728 682.667v163.84c0 6.144-2.048 10.24-6.144 12.288-4.096 4.096-8.192 6.144-12.288 6.144h-36.864c-6.144 0-10.24-2.048-12.288-6.144-4.096-4.096-6.144-8.192-6.144-12.288v-163.84c0-6.144 2.048-10.24 6.144-12.288 4.096-4.096 8.192-6.144 12.288-6.144h36.864c6.144 0 10.24 2.048 12.288 6.144 4.096 2.048 6.144 6.144 6.144 12.288zM671.744 148.139l-26.624-26.624c-4.096-4.096-8.192-6.144-12.288-6.144s-10.24 2.048-12.288 6.144l-108.544 106.496-106.496-108.544c-4.096-4.096-8.192-6.144-12.288-6.144s-8.192 2.048-12.288 6.144l-26.624 26.624c-6.144 4.096-6.144 8.192-6.144 14.336 0 4.096 2.048 10.24 6.144 12.288l108.544 106.496-108.544 106.496c-6.144 6.144-6.144 10.24-6.144 14.336s2.048 8.192 6.144 12.288l26.624 26.624c4.096 4.096 8.192 6.144 12.288 6.144s10.24-2.048 12.288-6.144l106.496-106.496 106.496 106.496c4.096 4.096 8.192 6.144 12.288 6.144s8.192-2.048 12.288-6.144l26.624-26.624c6.144-2.048 6.144-6.144 6.144-12.288 0-4.096-2.048-10.24-6.144-12.288l-106.496-106.496 106.496-106.496c6.144-6.144 6.144-10.24 6.144-14.336 0-6.144 0-10.24-4.096-12.288zM768 682.667v163.84c0 6.144-2.048 10.24-6.144 12.288-4.096 4.096-8.192 6.144-12.288 6.144h-36.864c-6.144 0-10.24-2.048-12.288-6.144-4.096-2.048-6.144-6.144-6.144-12.288v-163.84c0-6.144 2.048-10.24 6.144-12.288 4.096-4.096 8.192-6.144 12.288-6.144h36.864c6.144 0 10.24 2.048 12.288 6.144 4.096 2.048 6.144 6.144 6.144 12.288z" />
<glyph unicode="&#xe96d;" glyph-name="userdcon" d="M935.936 266.923c6.144 22.528 8.192 49.152 8.192 77.824 0 184.32-118.784 339.968-286.72 399.36-16.384 6.144-32.768-6.144-32.768-22.528l6.144-208.896c-2.048-16.384-32.768-24.576-49.152-24.576h-8.192l12.288 258.048c0 14.336-8.192 28.672-18.432 28.672h-110.592c-10.24 0-20.48-14.336-18.432-28.672l16.384-258.048h-4.096c-16.384 0-55.296 20.48-57.344 36.864l10.24 196.608c-2.048 16.384-18.432 28.672-32.768 22.528-169.984-57.344-290.816-215.040-290.816-399.36 0-28.672 2.048-53.248 8.192-75.776 0 0 0 0-2.048 0l-65.536-71.68-22.528-22.528c40.96-59.392 256-104.448 514.048-104.448 247.808 0 454.656 40.96 507.904 96.256l-83.968 100.352zM509.952 156.331c-198.656 0-411.648 47.104-411.648 131.072 0 2.048 0 6.144 0 8.192l10.24 65.536 14.336-65.536c8.192-51.2 165.888-106.496 389.12-106.496s380.928 55.296 389.12 106.496l10.24 67.584 10.24-67.584c0-2.048 0-6.144 0-8.192 0-83.968-212.992-131.072-411.648-131.072z" />
<glyph unicode="&#xe96e;" glyph-name="valve" d="M856.064 547.499v-83.968c0-12.288-10.24-24.576-24.576-24.576h-10.24c-12.288 0-24.576 10.24-24.576 24.576v155.648c0 12.288-10.24 24.576-24.576 24.576h-92.16c-12.288 0-24.576 10.24-24.576 24.576v180.224c0 12.288-10.24 24.576-24.576 24.576h-16.384c-10.24 0-20.48 10.24-20.48 24.576v16.384c0 14.336-10.24 24.576-24.576 24.576h-49.152c-12.288 0-24.576-10.24-24.576-24.576v-16.384c0-12.288-10.24-24.576-24.576-24.576h-16.384c-12.288 0-24.576-10.24-24.576-24.576 0-12.288-10.24-22.528-22.528-24.576-49.152-4.096-106.496-18.432-153.6-55.296-57.344-45.056-88.064-112.64-90.112-202.752-4.096-137.216-8.192-221.184-20.48-266.24-6.144-20.48-10.24-28.672-14.336-30.72 0 0-2.048-2.048-4.096-2.048-10.24-4.096-14.336-14.336-14.336-22.528l2.048-28.672c0-14.336 16.384-26.624 30.72-22.528 38.912 10.24 61.44 38.912 73.728 88.064 12.288 51.2 18.432 133.12 22.528 282.624 2.048 65.536 22.528 114.688 61.44 145.408 28.672 22.528 65.536 34.816 100.352 38.912 14.336 2.048 26.624-10.24 26.624-24.576v-57.344c0-12.288-10.24-24.576-24.576-24.576h-92.16c-12.288 0-24.576-10.24-24.576-24.576v-497.664c0-12.288 10.24-24.576 24.576-24.576h139.264c12.288 0 24.576-10.24 24.576-24.576v-6.144c0-12.288-10.24-24.576-24.576-24.576h-135.168c-12.288 0-24.576-10.24-24.576-24.576v-77.824c0-12.288 10.24-24.576 24.576-24.576h460.8c12.288 0 24.576 10.24 24.576 24.576v79.872c0 12.288-10.24 24.576-24.576 24.576h-135.168c-12.288 0-24.576 10.24-24.576 24.576v6.144c0 12.288 10.24 24.576 24.576 24.576h135.168c12.288 0 24.576 10.24 24.576 24.576v155.648c0 12.288 10.24 24.576 24.576 24.576h10.24c12.288 0 24.576-10.24 24.576-24.576v-98.304c0-12.288 10.24-24.576 24.576-24.576h6.144c12.288 0 24.576 10.24 24.576 24.576v368.64c0 12.288-10.24 24.576-24.576 24.576h-10.24c-12.288 0-24.576-10.24-24.576-24.576z" />
<glyph unicode="&#xe96f;" glyph-name="vault" d="M1024 51.883l-139.264 139.264c49.152 75.776 79.872 167.936 79.872 264.192 0 266.24-217.088 483.328-481.28 483.328-266.24 0-483.328-217.088-483.328-483.328s217.088-483.328 483.328-483.328c98.304 0 188.416 28.672 264.192 79.872l139.264-139.264 137.216 139.264zM122.88 455.339c0 198.656 161.792 360.448 360.448 360.448s360.448-161.792 360.448-360.448-161.792-360.448-360.448-360.448c-198.656 2.048-360.448 161.792-360.448 360.448zM704.512 535.211h-137.216l88.064 292.864h-184.32l-124.928-413.696h131.072l-131.072-335.872z" />
</font>
</defs>
</svg>
